<!-- Created with PixiEditor (https://pixieditor.net) -->
<svg version="1.1" viewBox="0 0 3500 1800" xmlns="http://www.w3.org/2000/svg">
  <path d="M532 385C532 385 501 377.87 501 377.87C501 377.87 463 368.37 463 368.37C447.65 364.54 434.68 362.39 425.1 348C420.08 340.46 416.42 327.73 413.31 319C413.31 319 395.19 268 395.19 268C395.19 268 387 245 387 245C385.61 240.9 383.76 236.38 384.2 232C384.54 228.57 386.2 225.02 387.78 222C395.62 207.04 409.56 200.03 426 200C426 200 558 200 558 200C577.53 200.23 590.77 214.71 605 226.2C605 226.2 691 295.75 691 295.75C691 295.75 717 316.75 717 316.75C722.72 321.47 726.3 325.85 734 326C745.58 326.21 745.91 325.82 757 323.6C759.52 323.1 764.68 322.32 766.68 321.02C769.1 319.44 771.99 314.54 773.58 312C773.58 312 783.81 296 783.81 296C783.81 296 809.95 255 809.95 255C819.57 239.83 823.54 230.13 841 222.31C846.18 219.99 863.59 216.18 870 214.79C870 214.79 912 205.12 912 205.12C912 205.12 981 189.12 981 189.12C992.88 186.3 1011.37 181.02 1023 181C1023 181 1153 181 1153 181C1169.44 181.03 1183.38 188.04 1191.22 203C1192.93 206.26 1194.82 210.26 1194.82 214C1194.82 222.78 1185.61 234.37 1179 239.47C1179 239.47 1137 264.01 1137 264.01C1137 264.01 1043 318.15 1043 318.15C1043 318.15 1012 336 1012 336C1008.89 337.79 1001.72 341.31 1000.02 344.21C998.59 346.65 998.95 353.95 999 357C999.04 358.94 999 361.05 1000.02 362.79C1002.07 366.26 1017.6 373.05 1022 375.25C1022 375.25 1065 397.26 1065 397.26C1074.01 401.91 1079.43 406.95 1090 407C1090 407 1099 407 1099 407C1109.03 406.83 1121.41 395.8 1130 390.42C1130 390.42 1203 342.69 1203 342.69C1203 342.69 1261 305 1261 305C1275.92 295.16 1286.28 286.03 1305 286C1305 286 1383 286 1383 286C1383 286 1424 286 1424 286C1437.3 286 1445.87 284.81 1458 291.88C1465.97 296.52 1477.89 310.09 1476.63 320C1475.83 326.37 1469.17 336.01 1465.19 341C1465.19 341 1440.59 371 1440.59 371C1440.59 371 1346.25 486 1346.25 486C1346.25 486 1324.08 513 1324.08 513C1321.55 516.05 1313.91 524.89 1312.74 528C1311.65 530.9 1311.94 541.38 1312 545C1312.14 552.35 1314.78 552.7 1321 556.14C1328.91 560.52 1335.89 563.99 1345 564C1352.62 564.01 1360.56 563.43 1368 565.24C1381.42 568.51 1393.58 579.9 1397.9 593C1399.85 598.91 1397.76 603.36 1396.02 609C1396.02 609 1388.72 633 1388.72 633C1388.72 633 1373.28 684 1373.28 684C1370.1 694.56 1366.02 703.82 1366 715C1366 715 1366 728.09 1366 728.09C1366 728.09 1376 728.09 1376 728.09C1383.01 728.92 1381.07 729.98 1391 730C1391 730 3160 730 3160 730C3165.79 730.01 3170.5 730.5 3176 732.56C3184.94 735.9 3193.5 744.46 3197.6 753C3197.6 753 3201.26 762 3201.26 762C3201.26 762 3211.25 782 3211.25 782C3211.25 782 3217.67 795 3217.67 795C3217.67 795 3221.26 804 3221.26 804C3221.26 804 3229.67 821 3229.67 821C3229.67 821 3232.79 829 3232.79 829C3232.79 829 3243.21 850 3243.21 850C3243.21 850 3247.26 860 3247.26 860C3247.26 860 3255.67 877 3255.67 877C3255.67 877 3259.26 886 3259.26 886C3259.26 886 3269.21 906 3269.21 906C3269.21 906 3272.33 914 3272.33 914C3272.33 914 3280.74 931 3280.74 931C3280.74 931 3289.25 950 3289.25 950C3289.25 950 3295.67 963 3295.67 963C3295.67 963 3299.26 972 3299.26 972C3299.26 972 3307.67 989 3307.67 989C3307.67 989 3311.26 998 3311.26 998C3311.26 998 3321.21 1018 3321.21 1018C3321.21 1018 3325.26 1028 3325.26 1028C3325.26 1028 3333.67 1045 3333.67 1045C3333.67 1045 3336.79 1053 3336.79 1053C3336.79 1053 3347.21 1074 3347.21 1074C3347.21 1074 3350.33 1082 3350.33 1082C3350.33 1082 3358.74 1099 3358.74 1099C3358.74 1099 3365.25 1114 3365.25 1114C3367.93 1119.37 3373.55 1129.79 3375.09 1135C3377.84 1144.34 3376.89 1150.52 3377 1160C3377 1160 3378 1175 3378 1175C3378 1175 3378 1222 3378 1222C3378 1222 3378 1280 3378 1280C3377.97 1298.65 3366 1314.85 3350 1323.69C3344.38 1326.79 3339.25 1328.87 3333 1330.35C3328.93 1331.31 3315.88 1333.07 3312 1332.9C3312 1332.9 3300 1332 3300 1332C3300 1332 3189 1332 3189 1332C3189 1332 3176 1332.92 3176 1332.92C3176 1332.92 3163 1332 3163 1332C3163 1332 2918 1332 2918 1332C2918 1332 2839 1332 2839 1332C2839 1332 2822 1332 2822 1332C2822 1332 2809 1332.82 2809 1332.82C2809 1332.82 2798 1332 2798 1332C2798 1332 2660 1332 2660 1332C2660 1332 2586 1332 2586 1332C2586 1332 2575 1332.92 2575 1332.92C2566.05 1332.92 2551.45 1330.02 2543 1326.95C2532.32 1323.07 2513.86 1313.15 2509.88 1302C2508.87 1299.18 2509 1295.96 2509 1293C2509 1293 2509 1172 2509 1172C2509 1172 1256 1172 1256 1172C1256 1176.11 1255.55 1188.89 1256.74 1192C1258.23 1195.91 1264.86 1201.86 1268 1205C1268 1205 1290 1228 1290 1228C1290 1228 1300.04 1239 1300.04 1239C1300.04 1239 1339.09 1280 1339.09 1280C1339.09 1280 1366.21 1309 1366.21 1309C1368.77 1312.58 1372.44 1319.6 1372.78 1324C1373.11 1328.42 1370.77 1333.21 1368.69 1337C1360.79 1351.34 1346.89 1357.98 1331 1358C1331 1358 1201 1358 1201 1358C1189.44 1357.98 1183.68 1355.23 1173 1351.67C1173 1351.67 1137 1339.33 1137 1339.33C1137 1339.33 1008 1295 1008 1295C1008 1295 970 1282 970 1282C961.1 1278.97 956.76 1276.05 947 1276C947 1276 933 1276 933 1276C933 1276 933 1288 933 1288C933.02 1298.31 934.87 1296.5 939.69 1305C944.95 1314.28 948.83 1316.55 955.96 1324C955.96 1324 974.83 1345 974.83 1345C974.83 1345 1047.16 1426 1047.16 1426C1047.16 1426 1085.47 1469 1085.47 1469C1088.54 1473 1092.82 1480.88 1092.82 1486C1092.82 1489.74 1090.93 1493.74 1089.22 1497C1082.04 1510.7 1068.37 1518.82 1053 1519C1053 1519 972 1519 972 1519C960.61 1519.21 965.62 1525.63 954.91 1536.99C946.09 1546.34 935.59 1549.98 923 1550C923 1550 794 1550 794 1550C780.66 1549.98 766.91 1544.82 758.53 1534C754.67 1529.02 748.03 1513.5 745.14 1507C745.14 1507 718.86 1450 718.86 1450C718.86 1450 702.65 1415.11 702.65 1415.11C699.74 1410.75 693.57 1409.37 689 1406.53C683.92 1403.38 678.33 1397.56 674.43 1393C674.43 1393 612.42 1319 612.42 1319C607.88 1313.62 605.12 1310.29 601.78 1304C600.35 1301.3 598.16 1295.53 595.73 1294.02C593.29 1292.51 584.22 1292.96 581 1293C571.67 1293.12 552.08 1300.47 542 1303.26C534.38 1305.36 531.54 1304.92 524 1305C524 1305 504 1307 504 1307C504 1307 376 1307 376 1307C355.72 1306.97 344.82 1296.38 330 1284.08C330 1284.08 300 1260 300 1260C300 1260 266 1232 266 1232C260.54 1226.53 254.66 1218.84 253.33 1211C252.65 1207.02 253.92 1200.16 254.59 1196C254.59 1196 258.58 1171 258.58 1171C258.58 1171 271.24 1091 271.24 1091C273.61 1080.89 277.99 1076.05 279.3 1072C280.25 1069.08 280.06 1062.3 280 1059C279.83 1050 273.55 1047.2 267 1042C267 1042 230 1012.8 230 1012.8C221.62 1006.12 204.49 993.73 198.53 986C193.53 979.52 193.08 975.01 190.2 970C190.2 970 183.27 959 183.27 959C183.27 959 162.2 907 162.2 907C162.2 907 152.2 882 152.2 882C149.4 875 146.58 870.61 149.47 863C155.66 846.66 172.7 836.64 186 826.21C186 826.21 245 780.42 245 780.42C245 780.42 271.94 759.54 271.94 759.54C276.97 755.04 276.01 752.71 277.77 747C278.91 743.3 281.99 737.28 284.09 734C284.09 734 322.37 683 322.37 683C322.37 683 469.87 487 469.87 487C469.87 487 515.87 426 515.87 426C518.96 421.88 530.23 407.73 531.44 404C532.11 401.94 532 399.18 532 397C532 397 532 385 532 385ZM1010 211.24C1010 211.24 979 218.35 979 218.35C979 218.35 894 238 894 238C894 238 859 246.12 859 246.12C855.06 247.05 847.47 248.02 844.52 250.56C842.15 252.59 832.75 268.21 830.31 272C830.31 272 798.34 322 798.34 322C798.34 322 787.71 339 787.71 339C786.57 341.37 785.42 344.91 789.15 345.58C792.78 346.24 801.6 340.37 805 338.42C805 338.42 844 316 844 316C844 316 974 241.15 974 241.15C974 241.15 1009 220.99 1009 220.99C1011.3 219.63 1017.29 216.67 1016.26 213.27C1015.8 211.78 1014.32 211.35 1012.94 211.24C1012.94 211.24 1010 211.24 1010 211.24ZM416.06 229.94C414.4 230.36 413.41 230.16 412.7 232.23C412.01 234.24 413.28 237.1 413.95 239C413.95 239 419.19 254 419.19 254C419.19 254 438 307 438 307C438 307 447.84 333.78 447.84 333.78C450.21 336.91 454.42 337.48 458 338.37C458 338.37 480 343.87 480 343.87C480 343.87 546 360.37 546 360.37C546 360.37 576.98 367.77 576.98 367.77C585.08 367.95 580.19 361.26 576.98 358.44C576.98 358.44 547 334.2 547 334.2C547 334.2 455 259.8 455 259.8C455 259.8 429 238.8 429 238.8C424.97 235.57 421.1 231.33 416.06 229.94ZM1293.94 315.82C1289.19 317.18 1279.74 324.04 1275 327.05C1275 327.05 1234 354 1234 354C1234 354 1111 434.33 1111 434.33C1111 434.33 1066 463.67 1066 463.67C1062.47 466.02 1050.38 473.22 1048.71 476.08C1045.36 481.8 1059.95 487.5 1064 489.69C1064 489.69 1112 515.75 1112 515.75C1115.92 517.8 1125.93 524.44 1129.96 523.3C1133.22 522.38 1138.75 514.8 1141.08 512C1141.08 512 1166.42 481 1166.42 481C1166.42 481 1260.8 366 1260.8 366C1260.8 366 1291.25 329 1291.25 329C1293.95 325.75 1301.94 317.73 1293.94 315.82ZM767 350.22C767 350.22 716 360.79 716 360.79C716 360.79 629 378.6 629 378.6C629 378.6 595 385.58 595 385.58C592.18 386.2 584.56 387.06 583.08 389.51C581.24 392.54 584.65 394.5 587.02 395.32C587.02 395.32 607 400.13 607 400.13C607 400.13 667 414.37 667 414.37C671.58 415.5 688.42 420.25 692 419.35C695.6 418.45 709.25 407 713 404C713 404 758 368.4 758 368.4C758 368.4 772.68 356.56 772.68 356.56C775.16 353.73 775.2 350.77 770.94 350.22C769.62 349.97 768.31 350.18 767 350.22ZM786 362.61C780.75 364.56 766.34 375.68 761 379.63C761 379.63 720 409.37 720 409.37C720 409.37 705.11 420.29 705.11 420.29C703.2 421.86 700.74 423.98 702.13 426.74C703.17 428.8 705.97 429.53 708 430.11C708 430.11 724 434.42 724 434.42C724 434.42 787 451.63 787 451.63C787 451.63 900 482.58 900 482.58C900 482.58 1038 520.29 1038 520.29C1038 520.29 1110 539.88 1110 539.88C1110 539.88 1127 544.43 1127 544.43C1129.69 544.76 1133.28 543.61 1131.83 540.19C1131.01 538.26 1127.77 536.46 1126 535.43C1126 535.43 1111 527.75 1111 527.75C1111 527.75 1083 513.25 1083 513.25C1083 513.25 1055 499.14 1055 499.14C1055 499.14 1021 481.74 1021 481.74C1021 481.74 901 419.78 901 419.78C901 419.78 869 403.58 869 403.58C869 403.58 838 387.75 838 387.75C838 387.75 811 373.75 811 373.75C805.26 370.88 791.49 362.49 786 362.61ZM568.96 401.74C563.12 404.65 555.13 417.33 550.87 423C550.87 423 512.58 474 512.58 474C512.58 474 454.63 551 454.63 551C454.63 551 363.37 672 363.37 672C363.37 672 317.37 733 317.37 733C317.37 733 306.45 748 306.45 748C304.38 752.22 306.76 754.73 310.02 753.79C312.89 752.97 327.64 740.06 331 737.25C331 737.25 381 695.13 381 695.13C381 695.13 456 632.08 456 632.08C456 632.08 480 611.92 480 611.92C482.95 609.46 491.52 602.46 493.5 599.91C496.14 596.53 502.49 579.18 504.6 574C504.6 574 526.2 521 526.2 521C526.2 521 563.2 430 563.2 430C563.2 430 571.76 409 571.76 409C573.01 405.3 573.84 401.96 568.96 401.74ZM586.13 412.61C582.02 415.29 581.49 419.56 579.81 424C579.81 424 569.33 454 569.33 454C568.28 457.17 564.5 467.55 572.02 465.69C574.55 465.07 587.03 456.64 590 454.67C590 454.67 624 432.67 624 432.67C627.18 430.56 638.37 424.78 638.37 420.97C638.37 416.53 630.15 416.24 627 416.02C627 416.02 603 413.72 603 413.72C598.57 413.18 590.2 411.88 586.13 412.61ZM1166 778C1166 778 1181.98 725 1181.98 725C1181.98 725 1207.42 641 1207.42 641C1207.42 641 1217.58 608 1217.58 608C1218.4 605.19 1221 598.07 1218.97 595.62C1216.41 592.52 1211.97 597.19 1210.28 599.02C1210.28 599.02 1189.58 622 1189.58 622C1189.58 622 1131.83 686 1131.83 686C1131.83 686 1102 720 1102 720C1124.14 720 1142.12 716.67 1157.24 737C1159.52 740.06 1161.57 743.36 1162.78 747C1167.1 760.01 1163.36 771.33 1166 778ZM634.95 643.52C634.95 643.52 586 654.35 586 654.35C586 654.35 499 674.12 499 674.12C499 674.12 467 681.35 467 681.35C464.28 681.96 457.59 682.76 456.32 685.42C454.99 688.19 457.81 690.04 460.02 690.86C460.02 690.86 478 694.6 478 694.6C478 694.6 532 705.4 532 705.4C532 705.4 557 710.34 557 710.34C562.07 710.23 572.67 700.6 577 697.21C577 697.21 624 660.79 624 660.79C624 660.79 636.69 650.56 636.69 650.56C639.65 647.23 639.51 644.47 634.95 643.52ZM583 720C605.4 720 623.22 716.21 639.82 735C642.63 738.19 645.95 743.01 647.44 747C648.83 750.71 648.84 755.28 652.28 757.79C652.28 757.79 667 764.28 667 764.28C667 764.28 701 778.4 701 778.4C701 778.4 734 792.15 734 792.15C736.89 793.38 743.77 796.81 746.64 794.94C751.04 792.08 741.65 780.07 739.66 777C739.66 777 705.19 723 705.19 723C705.19 723 672.69 672 672.69 672C670.48 668.56 663.06 655.37 659.9 654.25C657.31 653.33 654.91 655.36 653 656.82C653 656.82 640 668.16 640 668.16C640 668.16 601 702.93 601 702.93C595.53 707.89 587.17 714.31 583 720ZM430.94 697.53C424.68 699.06 404.95 710.88 398 714.7C398 714.7 334 750 334 750C334 750 312 762.14 312 762.14C309.65 763.46 305.48 765.23 304.74 768.05C303.23 773.88 315.86 772.99 319 773C319 773 351 775 351 775C351 775 373 776 373 776C384.33 775.98 385.04 771.05 391.58 762C391.58 762 414.12 731 414.12 731C414.12 731 431.56 707 431.56 707C433.88 703.61 437.22 698.38 430.94 697.53ZM538 748C538 748 537 748 537 748C537 748 538 749 538 749C538 749 538 748 538 748ZM537 749C537 749 499 756.79 499 756.79C499 756.79 423 773.58 423 773.58C423 773.58 396 779.43 396 779.43C393.53 780.02 388.45 781.32 389.05 784.82C389.62 788.09 399.07 789.76 402 790.58C402 790.58 444 801.29 444 801.29C444 801.29 482 810.88 482 810.88C486.29 812.01 496.01 815.47 500 814.45C504.25 813.37 516.83 801.84 521 798.42C524.55 795.52 533.9 788.85 535.4 784.96C536.12 783.11 536 780.02 536 778C536 778 537 749 537 749ZM575 1142C575 1142 1395 1142 1395 1142C1404.67 1141.98 1401.5 1140.81 1407.04 1139.95C1407.04 1139.95 1412.83 1139.95 1412.83 1139.95C1412.83 1139.95 1425.16 1136.46 1425.16 1136.46C1442.05 1132.04 1457.36 1125.93 1472.23 1116.72C1472.23 1116.72 1491.26 1104.8 1491.26 1104.8C1491.26 1104.8 1498.04 1098.38 1498.04 1098.38C1498.04 1098.38 1504.65 1093.63 1504.65 1093.63C1504.65 1093.63 1517.24 1080.96 1517.24 1080.96C1517.24 1080.96 1520.78 1075.74 1520.78 1075.74C1520.78 1075.74 1531.8 1062.26 1531.8 1062.26C1531.8 1062.26 1535.72 1055.23 1535.72 1055.23C1542.03 1045.04 1547.43 1034.47 1551.73 1023.27C1551.73 1023.27 1554.62 1016.73 1554.62 1016.73C1558.31 1006.16 1562.93 986.95 1563 976C1563.05 967.85 1564.33 969.76 1564.94 964.91C1564.94 964.91 1564.94 942 1564.94 942C1564.98 932.62 1564.16 935.9 1563.13 930.91C1563.13 930.91 1563.13 922 1563.13 922C1562.9 915.54 1562.06 917.18 1561.26 912.91C1559.53 903.64 1557.75 894.24 1554.62 885.27C1554.62 885.27 1551.73 878.73 1551.73 878.73C1545.51 862.51 1536.26 845.66 1525.8 831.74C1525.8 831.74 1518.78 824.26 1518.78 824.26C1518.78 824.26 1515.24 819.04 1515.24 819.04C1515.24 819.04 1504.65 808.37 1504.65 808.37C1504.65 808.37 1498.74 804.22 1498.74 804.22C1498.74 804.22 1493.96 799.76 1493.96 799.76C1493.96 799.76 1489.48 796.77 1489.48 796.77C1489.48 796.77 1484.52 792.68 1484.52 792.68C1474.39 785.74 1463.73 779.67 1452.27 775.27C1452.27 775.27 1436.56 768.69 1436.56 768.69C1436.56 768.69 1431.16 767.54 1431.16 767.54C1431.16 767.54 1421.72 764.43 1421.72 764.43C1421.72 764.43 1415.17 763.54 1415.17 763.54C1410.97 762.51 1400.92 760.06 1397 759.94C1397 759.94 1385.04 759.94 1385.04 759.94C1385.04 759.94 1377.91 758.06 1377.91 758.06C1377.91 758.06 1363 758.06 1363 758.06C1355.89 758.11 1358.16 759.92 1344 760C1336.09 760.04 1338.56 760.9 1333.91 761.99C1333.91 761.99 1327.17 761.99 1327.17 761.99C1327.17 761.99 1314.84 765.54 1314.84 765.54C1314.84 765.54 1291.43 772.68 1291.43 772.68C1279.18 777.39 1255.34 791.23 1244.74 799.2C1244.74 799.2 1235.96 807.62 1235.96 807.62C1232.73 810.42 1231.75 809.81 1228.01 813.67C1228.01 813.67 1222.62 820.96 1222.62 820.96C1222.62 820.96 1214.76 829.04 1214.76 829.04C1214.76 829.04 1211.22 834.26 1211.22 834.26C1198.86 849.96 1189.63 868.29 1183.37 887.27C1183.37 887.27 1179.43 899.28 1179.43 899.28C1179.43 899.28 1178.54 905.83 1178.54 905.83C1177.85 908.65 1175.86 912.66 1178.02 915.4C1179.58 917.38 1183.7 917 1186 917C1186 917 1204 917 1204 917C1205.69 916.96 1208 917.04 1209.42 915.98C1211.46 914.45 1214.96 902.11 1216 899C1221.79 881.77 1232.64 861.31 1245.05 848C1269.17 822.13 1291.63 807.42 1325.72 798.58C1325.72 798.58 1338.09 795.07 1338.09 795.07C1338.09 795.07 1345.91 795.07 1345.91 795.07C1345.91 795.07 1353.04 793.07 1353.04 793.07C1353.04 793.07 1382 793.07 1382 793.07C1388.52 793.11 1387.18 794.06 1391.17 795.01C1391.17 795.01 1399.91 795.01 1399.91 795.01C1399.91 795.01 1412.28 798.58 1412.28 798.58C1422.18 801.14 1432.05 804.2 1441.39 808.45C1441.39 808.45 1453 815.18 1453 815.18C1458.42 818.29 1467.28 823.47 1472.01 827.3C1472.01 827.3 1483 838 1483 838C1483 838 1495.7 850.99 1495.7 850.99C1495.7 850.99 1502.79 861.58 1502.79 861.58C1511.35 874.41 1515.76 882.91 1521.27 897.27C1521.27 897.27 1527.93 921.09 1527.93 921.09C1527.93 921.09 1527.93 928.91 1527.93 928.91C1528.72 934.19 1529.98 931.36 1530 941C1530 941 1530 963 1530 963C1529.88 969.7 1528.62 968.7 1527.93 973.09C1527.93 973.09 1527.93 980.91 1527.93 980.91C1527.93 980.91 1526.22 986.16 1526.22 986.16C1522.76 1001.96 1515.7 1021.18 1507.14 1035C1502.57 1042.38 1497 1048.92 1491.52 1055.58C1488.26 1059.54 1489.55 1059.53 1484 1064.98C1479.6 1069.29 1478.83 1069.08 1475.01 1072.25C1461.06 1083.84 1449.04 1091.33 1432.13 1097.88C1432.13 1097.88 1426.39 1100.52 1426.39 1100.52C1426.39 1100.52 1421.07 1101.53 1421.07 1101.53C1409.81 1104.48 1407.94 1107.02 1395 1107C1395 1107 854 1107 854 1107C854 1107 688 1107 688 1107C688 1107 637 1107 637 1107C629.84 1107 616.32 1106.2 610 1108C610 1108 610 760 610 760C610 760 584 760 584 760C584 760 576.6 761.02 576.6 761.02C576.6 761.02 575 769 575 769C575 769 575 854 575 854C575 854 575 1142 575 1142ZM871 760C871 760 871 786 871 786C871 787.99 870.77 791.81 872.02 793.4C873.59 795.38 877.7 795 880 795C880 795 1069 795 1069 795C1069 795 1119 795 1119 795C1126.8 794.86 1125.99 791.86 1126 785C1126 785 1126 768 1126 768C1125.86 758.22 1123.98 760 1106 760C1106 760 1040 760 1040 760C1040 760 972 760 972 760C972 760 871 760 871 760ZM2877 1008C2912.92 995.72 2942.34 967.05 2952.29 930C2953.53 925.37 2956.99 904.53 2957 900C2957 900 2957 878 2957 878C2956.98 868.33 2955.81 871.5 2954.95 865.96C2954.95 865.96 2954.95 860.17 2954.95 860.17C2953.12 850.85 2947.57 833.34 2942.78 825.23C2942.78 825.23 2933.24 811.04 2933.24 811.04C2933.24 811.04 2913.26 791.2 2913.26 791.2C2899.7 781.01 2878.19 770.44 2861.72 766.43C2861.72 766.43 2839.91 761.99 2839.91 761.99C2839.91 761.99 2831.04 761.99 2831.04 761.99C2826.51 761.33 2827.7 760.1 2821 760.02C2821 760.02 2704 760.02 2704 760.02C2704 760.02 2469 760.02 2469 760.02C2469 760.02 1766 760.02 1766 760.02C1766 760.02 1513 760.02 1513 760.02C1513 760.02 1453 760.02 1453 760.02C1453 760.02 1438.06 760.02 1438.06 760.02C1436.37 760.43 1434.01 761.32 1435.15 763.51C1436.19 765.5 1450 770.42 1452.87 771.42C1457.35 772.99 1473.19 781.79 1477 784.54C1485.64 790.77 1487.64 794.98 1499 795C1499 795 1700 795 1700 795C1700 795 1700 1142 1700 1142C1700 1142 1735 1142 1735 1142C1735 1142 1735 795 1735 795C1735 795 2649 795 2649 795C2649 795 2763 795 2763 795C2763 795 2824 795 2824 795C2833.35 795.02 2830.46 795.94 2835.17 797.01C2835.17 797.01 2841.91 797.01 2841.91 797.01C2841.91 797.01 2857.93 801.25 2857.93 801.25C2863.84 802.56 2869.23 805.35 2874.6 808.03C2881.34 811.4 2894.94 819.92 2899.87 825.06C2906.53 831.99 2915.16 846.78 2918.24 856C2919.76 860.54 2920.41 865.32 2921.25 870C2922.43 876.57 2922.98 873.34 2923 882C2923 882 2923 901 2923 901C2922.89 907.3 2919.43 919.05 2917.37 925.27C2914.96 932.58 2911.87 938.09 2907.67 944.47C2901.08 954.52 2886.91 966.62 2876.19 972.15C2876.19 972.15 2869.43 974.68 2869.43 974.68C2869.43 974.68 2852.28 980.42 2852.28 980.42C2852.28 980.42 2839.91 983.93 2839.91 983.93C2839.91 983.93 2830.09 983.93 2830.09 983.93C2824.81 984.72 2827.64 985.98 2818 986C2818 986 2761 986 2761 986C2761 986 2723 986 2723 986C2723 986 2671 986 2671 986C2671 986 2671 1142 2671 1142C2671 1142 2706 1142 2706 1142C2706 1142 2706 1020 2706 1020C2706 1020 2821 1020 2821 1020C2830.74 1019.98 2829.11 1018.42 2835 1018.05C2837.34 1017.91 2840.44 1017.94 2842.43 1019.31C2844.02 1020.4 2845.52 1023.32 2846.71 1025C2846.71 1025 2856.71 1039 2856.71 1039C2856.71 1039 2869.77 1056.48 2869.77 1056.48C2869.77 1056.48 2876.2 1066.26 2876.2 1066.26C2876.2 1066.26 2879.77 1070.48 2879.77 1070.48C2879.77 1070.48 2896.2 1094.26 2896.2 1094.26C2896.2 1094.26 2905.77 1106.48 2905.77 1106.48C2905.77 1106.48 2924.62 1133.03 2924.62 1133.03C2926.72 1135.53 2928.04 1139 2930.76 1140.75C2933.16 1142.29 2936.26 1142 2939 1142C2939 1142 2999 1142 2999 1142C3000.73 1141.97 3002.88 1142.03 3004.45 1141.18C3007.25 1139.65 3011.96 1128.54 3013.63 1125.2C3013.63 1125.2 3018.45 1113.61 3018.45 1113.61C3018.45 1113.61 3027.62 1095.2 3027.62 1095.2C3027.62 1095.2 3030.08 1088.43 3030.08 1088.43C3030.08 1088.43 3039.98 1068.39 3039.98 1068.39C3039.98 1068.39 3042.45 1061.61 3042.45 1061.61C3042.45 1061.61 3051.98 1042.39 3051.98 1042.39C3051.98 1042.39 3054.08 1036.43 3054.08 1036.43C3054.08 1036.43 3059.98 1024.39 3059.98 1024.39C3059.98 1024.39 3062.45 1017.61 3062.45 1017.61C3062.45 1017.61 3077.62 987.2 3077.62 987.2C3077.62 987.2 3080.08 980.43 3080.08 980.43C3080.08 980.43 3091.62 957.2 3091.62 957.2C3091.62 957.2 3094.08 950.43 3094.08 950.43C3094.08 950.43 3103.62 931.2 3103.62 931.2C3103.62 931.2 3106.45 923.61 3106.45 923.61C3106.45 923.61 3115.62 905.2 3115.62 905.2C3115.62 905.2 3118.84 896.8 3118.84 896.8C3118.84 896.8 3129.62 875.2 3129.62 875.2C3129.62 875.2 3132.84 866.8 3132.84 866.8C3132.84 866.8 3141.62 849.2 3141.62 849.2C3141.62 849.2 3144.45 841.61 3144.45 841.61C3148.03 833.75 3154.76 824.62 3155 816C3155 816 3158 816 3158 816C3158 816 3168.57 841.6 3168.57 841.6C3168.57 841.6 3176.92 858.43 3176.92 858.43C3176.92 858.43 3179.38 865.2 3179.38 865.2C3179.38 865.2 3188.92 884.43 3188.92 884.43C3188.92 884.43 3191.38 891.2 3191.38 891.2C3191.38 891.2 3202.92 914.43 3202.92 914.43C3202.92 914.43 3205.38 921.2 3205.38 921.2C3205.38 921.2 3214.92 940.43 3214.92 940.43C3214.92 940.43 3217.38 947.2 3217.38 947.2C3217.38 947.2 3226.55 965.61 3226.55 965.61C3226.55 965.61 3229.38 973.2 3229.38 973.2C3229.38 973.2 3242.55 999.61 3242.55 999.61C3242.55 999.61 3245.02 1006.39 3245.02 1006.39C3245.02 1006.39 3250.92 1018.43 3250.92 1018.43C3250.92 1018.43 3253.02 1024.39 3253.02 1024.39C3253.02 1024.39 3264.16 1046.8 3264.16 1046.8C3264.16 1046.8 3267.02 1054.39 3267.02 1054.39C3267.02 1054.39 3274.17 1068.8 3274.17 1068.8C3274.17 1068.8 3278.92 1078.43 3278.92 1078.43C3278.92 1078.43 3281.38 1085.2 3281.38 1085.2C3281.38 1085.2 3290.55 1103.61 3290.55 1103.61C3290.55 1103.61 3293.02 1110.39 3293.02 1110.39C3293.02 1110.39 3299.77 1124 3299.77 1124C3299.77 1124 3308.55 1141.18 3308.55 1141.18C3308.55 1141.18 3316 1142 3316 1142C3316 1142 3347 1142 3347 1142C3346.14 1135.29 3337.64 1121.4 3334.45 1114.39C3334.45 1114.39 3331.62 1106.8 3331.62 1106.8C3331.62 1106.8 3322.08 1087.57 3322.08 1087.57C3322.08 1087.57 3319.62 1080.8 3319.62 1080.8C3319.62 1080.8 3308.08 1057.57 3308.08 1057.57C3308.08 1057.57 3305.62 1050.8 3305.62 1050.8C3305.62 1050.8 3296.08 1031.57 3296.08 1031.57C3296.08 1031.57 3293.62 1024.8 3293.62 1024.8C3293.62 1024.8 3282.45 1002.39 3282.45 1002.39C3282.45 1002.39 3279.62 994.8 3279.62 994.8C3279.62 994.8 3270.08 975.57 3270.08 975.57C3270.08 975.57 3267.62 968.8 3267.62 968.8C3267.62 968.8 3256.45 946.39 3256.45 946.39C3256.45 946.39 3253.62 938.8 3253.62 938.8C3253.62 938.8 3244.08 919.57 3244.08 919.57C3244.08 919.57 3241.62 912.8 3241.62 912.8C3241.62 912.8 3230.08 889.57 3230.08 889.57C3230.08 889.57 3227.62 882.8 3227.62 882.8C3227.62 882.8 3218.45 864.39 3218.45 864.39C3218.45 864.39 3214.83 855.2 3214.83 855.2C3214.83 855.2 3204.08 833.57 3204.08 833.57C3204.08 833.57 3201.62 826.8 3201.62 826.8C3201.62 826.8 3192.45 808.39 3192.45 808.39C3192.45 808.39 3186.03 793.6 3186.03 793.6C3182.14 785.81 3171.54 767.63 3171 760C3171 760 3151 760 3151 760C3151 760 3143.58 761.02 3143.58 761.02C3143.58 761.02 3140.45 767 3140.45 767C3140.45 767 3134 780 3134 780C3134 780 3127.98 794 3127.98 794C3127.98 794 3102.89 848 3102.89 848C3102.89 848 3092.02 870 3092.02 870C3092.02 870 3088.45 879 3088.45 879C3088.45 879 3079.55 897 3079.55 897C3079.55 897 3076.45 905 3076.45 905C3076.45 905 3065.55 927 3065.55 927C3065.55 927 3062.45 935 3062.45 935C3062.45 935 3053.23 954.13 3053.23 954.13C3053.23 954.13 3051.2 960 3051.2 960C3051.2 960 3039.62 983.27 3039.62 983.27C3039.62 983.27 3037.2 990 3037.2 990C3037.2 990 3027.5 1009.97 3027.5 1009.97C3027.5 1009.97 3024.92 1017.09 3024.92 1017.09C3024.92 1017.09 3015.02 1037 3015.02 1037C3015.02 1037 3011.45 1046 3011.45 1046C3011.45 1046 3002.55 1064 3002.55 1064C3002.55 1064 2999.45 1072 2999.45 1072C2999.45 1072 2989.5 1092 2989.5 1092C2989.5 1092 2984.98 1103 2984.98 1103C2984.98 1103 2970 1136 2970 1136C2970 1136 2904.44 1045 2904.44 1045C2904.44 1045 2885.37 1018.29 2885.37 1018.29C2881.91 1013.97 2882.55 1012.66 2877 1010C2877 1010 2877 1008 2877 1008ZM292.09 779.03C287.61 779.79 285.43 782.25 282 784.88C282 784.88 265 798.12 265 798.12C265 798.12 203 846.21 203 846.21C203 846.21 185 860.12 185 860.12C182.12 862.36 178.02 865.13 177.42 869C176.87 872.48 182.26 884.16 183.8 888C183.8 888 202.6 935 202.6 935C202.6 935 208.71 949.89 208.71 949.89C209.82 951.82 211.34 953.57 213.81 952.6C216.37 951.59 218.57 946.42 219.74 944C219.74 944 231.78 918 231.78 918C231.78 918 278.74 819 278.74 819C278.74 819 292.09 790 292.09 790C294.19 785.92 297.34 781.52 292.09 779.03ZM331.94 778.86C331.94 778.86 309 778.86 309 778.86C305.92 779.05 302.96 778.97 300.7 781.43C299.13 783.14 297.71 787.68 296.8 790C296.8 790 289.82 808 289.82 808C288.86 810.74 287.66 815.12 292.06 815.46C295.45 815.72 301.26 810.44 304 808.37C304 808.37 330.98 787.87 330.98 787.87C334.62 784.97 338.44 781.01 331.94 778.86ZM1151 826C1140.4 830.05 1140.27 833.97 1124 834C1124 834 1036 834 1036 834C1036 834 1010 834 1010 834C1006.83 834 1000.76 833.58 998.09 835.02C995.34 836.51 993.62 839.45 992 842C992 842 1102 842 1102 842C1102 842 1125 842 1125 842C1132.97 842.1 1139.51 845.34 1142.89 844.17C1147.41 842.62 1149.98 830.46 1151 826ZM871 882C871 882 871 908 871 908C871 909.99 870.77 913.81 872.02 915.4C873.59 917.38 877.7 917 880 917C880 917 1069 917 1069 917C1069 917 1118 917 1118 917C1126.15 916.85 1125.99 914.22 1126 907C1126 907 1126 889 1126 889C1125.84 880.38 1123.56 882 1106 882C1106 882 1040 882 1040 882C1040 882 972 882 972 882C972 882 871 882 871 882ZM1947 986C1947 986 1947 907 1947 907C1947 907 1947 889 1947 889C1947 889 1945.4 883.02 1945.4 883.02C1945.4 883.02 1938 882 1938 882C1938 882 1912 882 1912 882C1912 882 1912 1142 1912 1142C1912 1142 1938 1142 1938 1142C1938 1142 1945.4 1140.98 1945.4 1140.98C1945.4 1140.98 1947 1133 1947 1133C1947 1133 1947 1020 1947 1020C1947 1020 2107 1020 2107 1020C2107 1020 2157 1020 2157 1020C2157 1020 2184 1021 2184 1021C2184 1021 2183 1053 2183 1053C2183 1053 2183 1115 2183 1115C2183 1115 2183 1135 2183 1135C2183 1135 2184.6 1140.98 2184.6 1140.98C2184.6 1140.98 2192 1142 2192 1142C2192 1142 2218 1142 2218 1142C2218 1142 2218 882 2218 882C2218 882 2192 882 2192 882C2192 882 2184.6 883.02 2184.6 883.02C2184.6 883.02 2183 891 2183 891C2183 891 2183 953 2183 953C2183 953 2184 985 2184 985C2184 985 2157 986 2157 986C2157 986 2107 986 2107 986C2107 986 1947 986 1947 986ZM1040 957C1040 957 1117 965.84 1117 965.84C1117 965.84 1255 982.28 1255 982.28C1255 982.28 1295 987.15 1295 987.15C1295 987.15 1317 989.83 1317 989.83C1320.79 990.12 1325.71 989.04 1322.38 984.18C1320.52 981.46 1307.66 973.77 1304 971.33C1304 971.33 1265 945.95 1265 945.95C1262.09 944.1 1251.4 936.54 1249.04 935.99C1244.94 935.02 1240.25 942.92 1237 945.82C1229.39 952.58 1221.16 955.88 1211 956C1211 956 1170 955.33 1170 955.33C1165.96 954.51 1162.62 953.57 1159 951.53C1156.15 949.93 1153.5 947.43 1150 948.3C1146.18 949.26 1144.82 952.91 1133 955.33C1133 955.33 1096 956 1096 956C1096 956 1058 956 1058 956C1053.05 956 1044.35 955.27 1040 957ZM989 956C989 956 879 956 879 956C867.78 956.02 867.04 959.64 859 966.72C859 966.72 841 982.98 841 982.98C841 982.98 777 1040.92 777 1040.92C770.57 1046.83 752.24 1062.35 748 1068C748 1068 796 1068 796 1068C796 1068 804 1067.3 804 1067.3C804 1067.3 834 1049.8 834 1049.8C834 1049.8 914 1001.8 914 1001.8C914 1001.8 963 972.4 963 972.4C963 972.4 989 956 989 956ZM536 963C536 963 453 985.13 453 985.13C453 985.13 427 992.12 427 992.12C422.97 993.18 414.48 994.93 411.3 997.08C408.08 999.26 398.64 1012.95 395.63 1017C395.63 1017 370.12 1052 370.12 1052C368.25 1054.53 361.39 1062.22 366.32 1064.87C369.09 1066.36 374.49 1062.59 377 1061.23C377 1061.23 407 1044.58 407 1044.58C407 1044.58 505 990.23 505 990.23C505 990.23 526 978.58 526 978.58C528.29 977.28 533.68 974.65 534.98 972.61C536.35 970.46 536 965.6 536 963ZM222.32 966.6C218.58 969.93 222.05 972.98 225.02 975.54C225.02 975.54 249 994.42 249 994.42C249 994.42 329 1057.6 329 1057.6C329 1057.6 350 1073.96 350 1073.96C353.99 1076.28 357.35 1074.82 356.3 1070C356.3 1070 346.25 1051 346.25 1051C346.25 1051 319.42 1002 319.42 1002C316.73 997.23 309.52 982.38 305.82 979.85C302.43 977.54 288.75 976.17 284 975.41C284 975.41 243 968.59 243 968.59C237.37 967.64 227.62 965.37 222.32 966.6ZM316.31 976.6C311.38 980.82 319.04 990.52 321.58 995C321.58 995 343.14 1034 343.14 1034C346.54 1040.1 348.14 1046.66 356 1046.98C365.85 1047.38 365.82 1044.49 372.42 1036C372.42 1036 392.87 1009 392.87 1009C395.25 1005.83 403.14 997.28 400.92 993.31C399.14 990.12 384.9 988.43 381 987.75C381 987.75 338 979.4 338 979.4C332.59 978.32 321.24 975.53 316.31 976.6ZM2592 986C2592 986 2329 986 2329 986C2329 986 2329 1020 2329 1020C2329 1020 2592 1020 2592 1020C2592 1020 2592 986 2592 986ZM303.1 1087.74C299.59 1089.96 299.91 1092.08 299.25 1096C299.25 1096 296.25 1115 296.25 1115C296.25 1115 285.25 1185 285.25 1185C284.36 1190.39 280.73 1207.7 283.02 1211.83C284.54 1214.56 293.12 1220.89 296 1223.2C296 1223.2 325 1246.58 325 1246.58C325 1246.58 354 1269.8 354 1269.8C356.45 1271.76 362.39 1277.32 365.69 1276.27C369.44 1275.08 367.12 1268.47 366.33 1266C366.33 1266 355.67 1234 355.67 1234C355.67 1234 318.33 1122 318.33 1122C318.33 1122 309.67 1096 309.67 1096C308.31 1091.96 307.97 1087.96 303.1 1087.74ZM2592 1142C2592 1142 2592 1116 2592 1116C2592 1114.06 2592.25 1110.28 2591.01 1108.74C2589.3 1106.62 2584.5 1107 2582 1107C2582 1107 2388 1107 2388 1107C2388 1107 2337 1107 2337 1107C2328.89 1107.11 2329.01 1108.52 2329 1116C2329 1116 2329 1142 2329 1142C2329 1142 2592 1142 2592 1142ZM2571 1180.28C2561.75 1181.62 2554.51 1182.21 2546 1186.9C2530.64 1195.37 2527.81 1205.81 2528 1222C2528.12 1231.64 2532.15 1238.59 2540 1244.21C2555.83 1255.57 2577.74 1255.56 2595 1263.44C2603.18 1267.18 2609.78 1274.59 2607.72 1284.04C2603.5 1303.48 2574.27 1304.28 2559 1300.25C2559 1300.25 2548 1296.54 2548 1296.54C2548 1296.54 2533.04 1288 2533.04 1288C2528.78 1286.92 2524.48 1295.33 2525.13 1298.83C2525.75 1302.23 2532.13 1306.1 2535 1307.69C2545.24 1313.36 2557.26 1316.94 2569 1317C2569 1317 2580 1317 2580 1317C2597.96 1316.97 2617.6 1309.5 2623.64 1291C2625.29 1285.94 2625.06 1282.22 2625 1277C2624.65 1248.27 2590.17 1244.8 2569 1238.71C2560.19 1236.18 2550.04 1233.15 2545.97 1224C2541.78 1214.57 2547.6 1204.55 2556 1199.9C2567.04 1193.8 2584.24 1195.06 2596 1198.43C2599.63 1199.47 2611.56 1205.63 2613.79 1204.76C2616.71 1203.61 2619.92 1196.02 2618.77 1193.1C2617.78 1190.59 2614.31 1188.9 2612 1187.79C2600.2 1182.08 2584.06 1179.07 2571 1180.28ZM3170 1180.28C3150.6 1183.09 3138.32 1186.41 3124.01 1201C3119.19 1205.92 3115.36 1210.82 3112.27 1217C3108.06 1225.42 3105.23 1237.58 3105.01 1247C3104.39 1274.63 3118.11 1297.98 3143 1310.24C3150.94 1314.16 3160.1 1316.89 3169 1317C3169 1317 3181 1317 3181 1317C3197.76 1316.97 3216.21 1308.97 3227.91 1296.96C3251.25 1273 3253.15 1230.78 3231.68 1205C3216.87 1187.23 3192.92 1178.15 3170 1180.28ZM3309 1180.28C3299.75 1181.62 3292.51 1182.21 3284 1186.9C3268.64 1195.37 3265.81 1205.81 3266 1222C3266.12 1231.64 3270.15 1238.59 3278 1244.21C3293.83 1255.57 3315.74 1255.56 3333 1263.44C3341.18 1267.18 3347.78 1274.59 3345.72 1284.04C3341.5 1303.48 3312.27 1304.28 3297 1300.25C3297 1300.25 3286 1296.54 3286 1296.54C3286 1296.54 3271.04 1288 3271.04 1288C3266.78 1286.92 3262.48 1295.33 3263.13 1298.83C3263.75 1302.23 3270.13 1306.1 3273 1307.69C3283.24 1313.36 3295.26 1316.94 3307 1317C3307 1317 3318 1317 3318 1317C3335.96 1316.97 3355.6 1309.5 3361.64 1291C3363.29 1285.94 3363.06 1282.22 3363 1277C3362.65 1248.27 3328.17 1244.8 3307 1238.71C3298.19 1236.18 3288.04 1233.15 3283.97 1224C3279.78 1214.57 3285.6 1204.55 3294 1199.9C3305.04 1193.8 3322.24 1195.06 3334 1198.43C3337.63 1199.47 3349.56 1205.63 3351.79 1204.76C3354.71 1203.61 3357.92 1196.02 3356.77 1193.1C3355.78 1190.59 3352.31 1188.9 3350 1187.79C3338.2 1182.08 3322.06 1179.07 3309 1180.28ZM2693 1197C2693 1197 2730 1197 2730 1197C2732.26 1197 2736.62 1197.25 2738.43 1195.83C2740.71 1194.03 2740.71 1183.97 2738.43 1182.17C2736.62 1180.75 2732.26 1181 2730 1181C2730 1181 2640 1181 2640 1181C2637.5 1181 2632.7 1180.62 2630.99 1182.74C2629.37 1184.74 2629.48 1194.3 2631.6 1195.98C2633.08 1197.15 2636.18 1196.99 2638 1197C2638 1197 2677 1197 2677 1197C2675.16 1203.48 2676 1220.38 2676 1228C2676 1228 2676 1289 2676 1289C2676 1289 2676 1308 2676 1308C2676.03 1310.15 2675.89 1313.52 2677.74 1315.01C2679.39 1316.34 2684.82 1316.03 2687 1316C2694.8 1315.87 2693.99 1312.86 2694 1306C2694 1306 2694 1233 2694 1233C2694 1224.85 2694.88 1203.62 2693 1197ZM2758.13 1181.22C2754.39 1183.38 2755.02 1185.02 2755 1189C2755 1189 2755 1229 2755 1229C2755 1256.64 2750.08 1289.65 2776 1307.96C2780.34 1311.02 2783.01 1312.31 2788 1314C2793.64 1315.9 2798.02 1316.93 2804 1317C2804 1317 2817 1317 2817 1317C2823.1 1316.92 2828.31 1315.76 2834 1313.57C2838.43 1311.87 2843.25 1309.38 2847 1306.47C2870.77 1288.06 2866 1252.67 2866 1226C2866 1226 2866 1195 2866 1195C2866 1192.4 2866.5 1184.58 2865.01 1182.74C2863.36 1180.7 2858.43 1180.92 2856 1181.02C2848.57 1181.33 2849.01 1184.78 2849 1191C2849 1191 2849 1250 2849 1250C2849 1263.64 2849.73 1276.24 2841.21 1288C2828.97 1304.9 2797.72 1306.15 2783.17 1291.82C2774.81 1283.58 2772.02 1271.36 2772 1260C2772 1260 2772 1200 2772 1200C2772 1183.95 2773.66 1181.27 2765 1181.22C2762.49 1180.94 2760.6 1181.03 2758.13 1181.22ZM2908.13 1181.21C2904.14 1183.51 2905.01 1185.86 2905 1190C2905 1190 2905 1212 2905 1212C2905 1212 2905 1291 2905 1291C2905 1291 2905 1309 2905 1309C2905.04 1310.95 2904.9 1313.63 2906.6 1314.98C2908.19 1316.23 2912.01 1316 2914 1316C2914 1316 2965 1316 2965 1316C2984.74 1315.97 3004.95 1307.27 3017.68 1292C3036.63 1269.25 3037.08 1230.16 3018.71 1207C2997.68 1180.48 2969.48 1181 2939 1181.21C2939 1181.21 2908.13 1181.21 2908.13 1181.21ZM3063.13 1181.43C3059.7 1183.21 3060.07 1184.25 3060 1188C3060 1188 3060 1213 3060 1213C3060 1213 3060 1291 3060 1291C3060 1291 3060 1309 3060 1309C3060.04 1310.95 3059.9 1313.63 3061.6 1314.98C3063.23 1316.27 3067.9 1316.03 3070 1316C3077.49 1315.86 3076.99 1313.73 3077 1307C3077 1307 3077 1211 3077 1211C3077 1211 3077 1188 3077 1188C3076.96 1186.04 3077.15 1183.53 3075.43 1182.17C3073.12 1180.36 3065.96 1180.97 3063.13 1181.43ZM924 1182C924 1182 768 1182 768 1182C768 1182 723 1182 723 1182C723 1182 701 1183 701 1183C701 1183 747 1191.2 747 1191.2C747 1191.2 815 1203.8 815 1203.8C815 1203.8 845 1209.42 845 1209.42C845 1209.42 862 1211.89 862 1211.89C862 1211.89 882 1203.25 882 1203.25C882 1203.25 924 1182 924 1182ZM944 1182.25C938.17 1184.12 931.61 1188.03 926 1190.74C926 1190.74 892 1207.25 892 1207.25C888.61 1208.94 875.9 1213.7 876.45 1218C876.96 1222.07 885.62 1223.82 889 1225.05C889 1225.05 931 1239.67 931 1239.67C931 1239.67 1106 1299.67 1106 1299.67C1106 1299.67 1169 1321.33 1169 1321.33C1169 1321.33 1184 1326.42 1184 1326.42C1186.13 1327.21 1189.51 1328.8 1191.77 1328.08C1195.39 1326.92 1194.15 1323.28 1192.55 1321C1192.55 1321 1179.01 1307 1179.01 1307C1179.01 1307 1169.96 1297 1169.96 1297C1169.96 1297 1122 1247 1122 1247C1122 1247 1091.91 1215 1091.91 1215C1091.91 1215 1077.17 1200 1077.17 1200C1073.37 1195.8 1063.82 1184.37 1059 1182.25C1057.06 1181.88 1054.09 1182 1052 1182.25C1052 1182.25 982 1182.25 982 1182.25C982 1182.25 944 1182.25 944 1182.25ZM355.06 1188.6C348.4 1191.2 352.31 1197.88 354 1203C354 1203 367.02 1245 367.02 1245C368.15 1248.63 370.56 1260.32 375.06 1260.38C377.43 1260.41 380.23 1257.99 382 1256.57C382 1256.57 395 1245.75 395 1245.75C395 1245.75 438 1209.75 438 1209.75C440.9 1207.34 451.1 1200.35 450.04 1196.24C448.95 1192.05 439.34 1193.04 436 1193C436 1193 426 1192 426 1192C426 1192 415 1192 415 1192C415 1192 402 1191 402 1191C402 1191 387 1190 387 1190C387 1190 355.06 1188.6 355.06 1188.6ZM634.31 1191.74C634.12 1191.89 633.23 1191.93 632.64 1193.32C631.16 1196.8 637.52 1208.35 639.14 1212C639.14 1212 665.75 1270 665.75 1270C665.75 1270 708.31 1363 708.31 1363C708.31 1363 752.42 1459 752.42 1459C752.42 1459 775.31 1509 775.31 1509C776.3 1511.15 778.99 1517.01 780.63 1518.38C785.11 1522.15 786.27 1516.27 786.12 1513C786.12 1513 782.17 1475 782.17 1475C782.17 1475 772.17 1380 772.17 1380C772.17 1380 767.28 1333 767.28 1333C766.84 1329.33 766.38 1318.8 764.98 1316C762.61 1311.27 745.82 1296.19 741 1291.83C741 1291.83 716 1267 716 1267C716 1267 697 1249 697 1249C697 1249 653 1206 653 1206C648.71 1201.71 640.42 1191.98 634.31 1191.74ZM3168 1196.43C3184.76 1194.36 3204.12 1199.12 3215.7 1212.04C3242.49 1241.93 3228.73 1294.2 3187 1300.71C3176.39 1302.36 3165.14 1302.06 3155 1298.07C3119.69 1284.2 3111.06 1237.76 3137.09 1211.04C3145.53 1202.37 3156.32 1198.35 3168 1196.43ZM2922 1197C2922 1197 2963 1197 2963 1197C2971.99 1197.04 2980.97 1199.2 2989 1203.27C3022.38 1220.21 3023.79 1271.61 2994 1291.48C2978.91 1301.54 2964.2 1301 2947 1301C2947 1301 2922 1301 2922 1301C2922 1301 2922 1197 2922 1197ZM467 1200.21C461.2 1202.71 451.28 1212.19 446 1216.59C446 1216.59 404 1251.92 404 1251.92C404 1251.92 390 1263.59 390 1263.59C387.95 1265.33 384.08 1268.46 383.17 1270.98C380.43 1278.52 392.4 1274.18 395 1273.42C395 1273.42 438 1260.58 438 1260.58C438 1260.58 575 1219.58 575 1219.58C575 1219.58 607 1209.98 607 1209.98C609.52 1209.19 616.77 1207.3 614.83 1203.3C613.52 1200.58 608.52 1201.01 606 1201C606 1201 533 1201 533 1201C533 1201 518 1200.21 518 1200.21C518 1200.21 467 1200.21 467 1200.21ZM624.1 1220.82C619.7 1223.47 621.61 1226.62 621.91 1231C621.91 1231 623.42 1257 623.42 1257C623.42 1257 626.74 1294 626.74 1294C628.11 1297.61 638.48 1309.27 641.59 1313C641.59 1313 673.41 1351 673.41 1351C673.41 1351 695.08 1377 695.08 1377C696.82 1379.07 700.47 1384.37 703.46 1382.83C707.41 1381.06 704.42 1375.42 703.46 1373C703.46 1373 689.75 1346 689.75 1346C689.75 1346 642.75 1251 642.75 1251C642.75 1251 631.25 1228 631.25 1228C629.34 1224.23 628.68 1221.17 624.1 1220.82ZM777.14 1334.74C772.33 1337.73 774.76 1343.06 775 1348C775 1348 778.83 1388 778.83 1388C779.2 1391.78 778.84 1397.4 780.98 1400.68C782.56 1403.09 787.49 1405.98 790 1407.67C790 1407.67 807 1419.34 807 1419.34C807 1419.34 878 1468.02 878 1468.02C878 1468.02 902 1484.66 902 1484.66C904.29 1486.21 908.92 1489.8 911.77 1489.04C917.19 1487.6 911.4 1480.97 909.71 1479C909.71 1479 885.58 1452 885.58 1452C885.58 1452 845.17 1407 845.17 1407C845.17 1407 805.93 1363 805.93 1363C805.93 1363 787.07 1342 787.07 1342C783.84 1338.45 782.23 1334.94 777.14 1334.74Z" fill-rule="nonzero" transform="matrix(1, 0, 0, 1, 0, 0)" fill="#000000" fill-opacity="1" stroke="#000000" stroke-width="5" stroke-linecap="butt" stroke-linejoin="miter" opacity="1" id="path1" />
  <path d="M522 395C515.52 394.46 503.81 391.08 497 389.37C497 389.37 455 378.87 455 378.87C440.19 375.17 427.77 373.61 417.33 361C411.48 353.95 407.6 341.77 404.67 333C404.67 333 391.58 296 391.58 296C391.58 296 381 266 381 266C381 266 374.24 246 374.24 246C370.51 230.13 373.88 212.53 386.01 201.09C389.65 197.67 393.47 195.35 398 193.31C404.13 190.56 409.39 190.01 416 190C416 190 566 190 566 190C587.98 190.03 598.98 203.27 615 216.2C615 216.2 697 282.42 697 282.42C697 282.42 727 306.75 727 306.75C730.32 309.5 735.62 315.11 740.09 314.87C742.64 314.73 754.8 312.24 756.68 311.02C759.1 309.44 761.99 304.54 763.58 302C763.58 302 774.42 285 774.42 285C774.42 285 799.95 245 799.95 245C810.04 229.08 815.64 217.1 835 210.75C835 210.75 875 201.35 875 201.35C875 201.35 944 185.35 944 185.35C944 185.35 984 176.12 984 176.12C993.56 173.85 1003.13 171.02 1013 171C1013 171 1114 171 1114 171C1114 171 1148 171 1148 171C1167.68 171 1183.82 169.31 1197.47 187C1199.62 189.78 1201.76 193.75 1203.12 197C1205.11 201.74 1205.94 206.88 1206 212C1206.06 217.79 1205.96 222.37 1204.23 228C1199.48 243.41 1189.85 249.14 1177 256.8C1177 256.8 1155 269.42 1155 269.42C1155 269.42 1061 323.58 1061 323.58C1061 323.58 1009 354 1009 354C1009 354 1046 372.69 1046 372.69C1046 372.69 1071 385.25 1071 385.25C1075.83 387.66 1090.48 396.9 1095 395.97C1098.01 395.36 1106.98 389.01 1110 387C1110 387 1139 368 1139 368C1139 368 1237 304 1237 304C1237 304 1254 293 1254 293C1267.99 283.68 1277.46 276.03 1295 276C1295 276 1388 276 1388 276C1388 276 1427 276 1427 276C1448.06 276 1467.35 273.64 1480.9 294C1482.84 296.92 1485.19 301.64 1486.23 305C1487.84 310.23 1488.06 314.6 1488 320C1487.81 336.55 1479.35 345.89 1469.42 358C1469.42 358 1453.92 377 1453.92 377C1453.92 377 1361.2 490 1361.2 490C1361.2 490 1332.42 525 1332.42 525C1330.24 527.66 1322.82 535.88 1322.74 538.9C1322.66 542.42 1330.24 545.78 1333 547.22C1335.65 548.59 1345.46 553.07 1348 553.81C1348 553.81 1368 553.81 1368 553.81C1391.02 554.27 1409.74 572.98 1410 596C1410.16 610.53 1403.35 627.93 1399.02 642C1399.02 642 1376 718.09 1376 718.09C1376 718.09 1386 718.09 1386 718.09C1393.01 718.92 1391.07 719.98 1401 720C1401 720 3170 720 3170 720C3185.36 720.02 3196.85 725.86 3205.3 739C3208.88 744.57 3208.64 746.49 3211.26 752C3211.26 752 3223.25 776 3223.25 776C3223.25 776 3231.26 794 3231.26 794C3231.26 794 3239.67 811 3239.67 811C3239.67 811 3242.79 819 3242.79 819C3242.79 819 3253.21 840 3253.21 840C3253.21 840 3257.26 850 3257.26 850C3257.26 850 3265.67 867 3265.67 867C3265.67 867 3269.26 876 3269.26 876C3269.26 876 3279.21 896 3279.21 896C3279.21 896 3282.33 904 3282.33 904C3282.33 904 3290.74 921 3290.74 921C3290.74 921 3294.79 931 3294.79 931C3294.79 931 3305.21 952 3305.21 952C3305.21 952 3309.26 962 3309.26 962C3309.26 962 3317.67 979 3317.67 979C3317.67 979 3321.26 988 3321.26 988C3321.26 988 3331.21 1008 3331.21 1008C3331.21 1008 3334.79 1017 3334.79 1017C3334.79 1017 3343.21 1034 3343.21 1034C3343.21 1034 3346.79 1043 3346.79 1043C3346.79 1043 3357.21 1064 3357.21 1064C3357.21 1064 3360.79 1073 3360.79 1073C3360.79 1073 3369.21 1090 3369.21 1090C3369.21 1090 3375.25 1104 3375.25 1104C3379.3 1112.12 3384.09 1120.08 3386.11 1129C3387.55 1135.35 3386.93 1143.36 3387 1150C3387 1150 3388 1165 3388 1165C3388 1165 3388 1236 3388 1236C3388 1236 3388 1290 3388 1290C3387.97 1307.92 3377.02 1323.39 3362 1332.54C3356.77 1335.72 3350.92 1338.27 3345 1339.85C3337.98 1341.72 3326.29 1342.99 3319 1343C3319 1343 3305 1343 3305 1343C3305 1343 3290 1342 3290 1342C3290 1342 3197 1342 3197 1342C3197 1342 3187 1342.95 3187 1342.95C3187 1342.95 3168 1342.95 3168 1342.95C3168 1342.95 3153 1342 3153 1342C3153 1342 2878 1342 2878 1342C2878 1342 2833 1342 2833 1342C2833 1342 2821 1342.95 2821 1342.95C2821 1342.95 2803 1342.95 2803 1342.95C2803 1342.95 2788 1342 2788 1342C2788 1342 2596 1342 2596 1342C2596 1342 2581 1343 2581 1343C2558.72 1343.03 2538.8 1342.2 2519 1330.4C2512.18 1326.33 2501.76 1318.98 2499.57 1311C2498.91 1308.63 2499 1305.48 2499 1303C2499 1303 2499 1182 2499 1182C2499 1182 1266 1182 1266 1182C1266 1182 1301.96 1220 1301.96 1220C1301.96 1220 1350.04 1271 1350.04 1271C1350.04 1271 1368.17 1290 1368.17 1290C1380.05 1303.16 1384.21 1308.77 1384 1327C1383.73 1349.85 1365.85 1367.73 1343 1368C1343 1368 1273 1368 1273 1368C1273 1368 1191 1368 1191 1368C1178.92 1367.98 1171.21 1364.4 1160 1360.67C1160 1360.67 1112 1344 1112 1344C1112 1344 943 1286 943 1286C950.76 1294.54 949.54 1296.84 955.1 1303C955.1 1303 967.83 1316 967.83 1316C967.83 1316 1064.28 1424 1064.28 1424C1064.28 1424 1082.17 1444 1082.17 1444C1095.7 1459.04 1104.09 1465.5 1104 1487C1103.89 1511.93 1085.61 1528.96 1061 1529C1061 1529 984 1529 984 1529C981.7 1529 978.26 1528.79 976.27 1530.02C972.59 1532.3 972.45 1538.99 964.91 1546.99C956.09 1556.34 945.59 1559.98 933 1560C933 1560 784 1560 784 1560C770.66 1559.98 756.91 1554.82 748.53 1544C744.43 1538.71 737.85 1522.89 734.69 1516C734.69 1516 709.31 1461 709.31 1461C709.31 1461 693.2 1426.04 693.2 1426.04C689.97 1420.58 685.32 1420.22 680 1417.12C675.03 1414.23 670.98 1410.18 667.09 1406C667.09 1406 646.92 1382 646.92 1382C646.92 1382 610.08 1338 610.08 1338C604.19 1330.95 597.43 1323.97 592.87 1316C591.36 1313.36 588.2 1305.38 585.73 1304.35C583.9 1303.58 580.85 1304.63 579 1305.14C579 1305.14 563 1309.98 563 1309.98C550.3 1313.88 548.43 1314.94 535 1315C535 1315 514 1317 514 1317C514 1317 366 1317 366 1317C345.72 1316.97 334.82 1306.38 320 1294.08C320 1294.08 291 1270.8 291 1270.8C276.29 1259.03 251.16 1242.41 244.47 1225C241.98 1218.54 241.92 1212.77 242 1206C242 1206 247.92 1165 247.92 1165C247.92 1165 258.41 1098 258.41 1098C259.89 1089.21 260.58 1080.21 264.31 1072C265.45 1069.48 269.27 1064.29 268.05 1061.75C267.23 1060.04 263.56 1057.26 262 1056C262 1056 247 1044.2 247 1044.2C247 1044.2 217 1020.42 217 1020.42C217 1020.42 195 1002.83 195 1002.83C183.89 992.78 186.27 990.53 180.2 980C180.2 980 173.27 969 173.27 969C173.27 969 149.8 911 149.8 911C145.13 899.33 137.15 883.24 137 871C136.94 865.21 137.04 860.63 138.77 855C143.95 838.19 159.9 828.79 173 818.58C173 818.58 235 770.42 235 770.42C235 770.42 263.7 747.83 263.7 747.83C268.13 742.72 264.96 739.67 272.87 726C272.87 726 300.88 688 300.88 688C300.88 688 445.63 496 445.63 496C445.63 496 493.13 433 493.13 433C493.13 433 522 395 522 395ZM1366 728C1366 728 1366 715 1366 715C1366.02 703.82 1370.1 694.56 1373.28 684C1373.28 684 1388.72 633 1388.72 633C1388.72 633 1396.02 609 1396.02 609C1397.76 603.36 1399.85 598.91 1397.9 593C1393.58 579.9 1381.42 568.51 1368 565.24C1360.56 563.43 1352.62 564.01 1345 564C1335.89 563.99 1328.91 560.52 1321 556.14C1314.78 552.7 1312.14 552.35 1312 545C1311.94 541.38 1311.65 530.9 1312.74 528C1313.88 524.98 1320.83 516.93 1323.25 514C1323.25 514 1345.41 487 1345.41 487C1345.41 487 1437.25 375 1437.25 375C1437.25 375 1468.96 336 1468.96 336C1472.24 331.28 1477.38 322.91 1476.63 317C1476.27 314.16 1474.55 310.54 1473.22 308C1465.38 293.04 1451.44 286.03 1435 286C1435 286 1305 286 1305 286C1287.85 286.03 1278.7 293.2 1265 302.33C1265 302.33 1249 312.67 1249 312.67C1249 312.67 1147 379.33 1147 379.33C1147 379.33 1120 397 1120 397C1116.24 399.51 1107.96 405.42 1104 406.75C1101.32 407.24 1092.26 407.04 1089 406.75C1079.71 406.87 1072.98 401.38 1065 397.26C1065 397.26 1018 373.25 1018 373.25C1014.08 371.29 1001.95 366.05 1000.02 362.79C998.89 360.86 999.02 358.17 999 356C999 356 999 350 999 350C999.16 341.31 1004.13 340.52 1011 336.58C1011 336.58 1043 318.15 1043 318.15C1043 318.15 1137 264.01 1137 264.01C1137 264.01 1180 238.67 1180 238.67C1186.21 233.55 1194.82 222.47 1194.82 214C1194.82 210.26 1192.93 206.26 1191.22 203C1184.04 189.3 1170.37 181.18 1155 181C1155 181 1093 181 1093 181C1093 181 1021 181 1021 181C1011.63 181.11 989.39 187.27 979 189.58C979 189.58 886 211.12 886 211.12C870.05 214.9 842.51 218.89 830 228.53C821.15 235.35 815.84 245.7 809.95 255C809.95 255 783.81 296 783.81 296C783.81 296 773.58 312 773.58 312C771.99 314.54 769.1 319.44 766.68 321.02C764.68 322.32 759.52 323.1 757 323.6C745.91 325.82 745.58 326.21 734 326C726.3 325.85 722.72 321.47 717 316.75C717 316.75 690 294.92 690 294.92C690 294.92 605 226.2 605 226.2C588.98 213.27 577.98 200.03 556 200C556 200 426 200 426 200C410.11 200.02 396.21 206.66 388.31 221C385.96 225.27 383.72 230 384.2 235C384.63 239.59 390.49 254.5 392.33 260C392.33 260 413.66 320 413.66 320C418.29 333.35 421.63 347.25 433 356.67C442.7 364.71 456.98 366.87 469 369.87C469 369.87 509 379.87 509 379.87C515.55 381.51 525.65 384.47 532 385C532 385 532 397 532 397C532 399.18 532.11 401.94 531.44 404C530.23 407.75 518.29 422.79 515.13 427C515.13 427 468.37 489 468.37 489C468.37 489 370.37 619 370.37 619C370.37 619 312.42 696 312.42 696C312.42 696 282.87 736 282.87 736C274.48 750.5 278.56 753 272.86 758.7C272.86 758.7 244 781.21 244 781.21C244 781.21 176 834 176 834C165.89 841.94 145.26 856.73 148.53 872C148.53 872 164.2 912 164.2 912C164.2 912 183.27 959 183.27 959C183.27 959 190.2 970 190.2 970C195.86 979.82 193.74 982.25 204 991.91C204 991.91 258 1035 258 1035C262.83 1038.83 277.53 1048.99 279.4 1054C280.24 1056.26 280.03 1063.27 280 1066C279.87 1075.11 273.28 1081.53 271.01 1092C271.01 1092 266.58 1120 266.58 1120C266.58 1120 258.58 1171 258.58 1171C258.58 1171 254.59 1196 254.59 1196C253.92 1200.16 252.65 1207.02 253.33 1211C254.66 1218.84 260.54 1226.53 266 1232C266 1232 300 1260 300 1260C300 1260 330 1284.08 330 1284.08C344.82 1296.38 355.72 1306.97 376 1307C376 1307 504 1307 504 1307C514.25 1306.98 513.94 1305.58 521 1305.09C529.69 1304.48 532.6 1305.85 542 1303.26C552.08 1300.47 571.67 1293.12 581 1293C584.22 1292.96 593.29 1292.51 595.73 1294.02C598.16 1295.53 600.35 1301.3 601.78 1304C605.12 1310.29 607.88 1313.62 612.42 1319C612.42 1319 674.43 1393 674.43 1393C678.33 1397.56 683.92 1403.38 689 1406.53C693.57 1409.37 699.74 1410.75 702.65 1415.11C702.65 1415.11 718.86 1450 718.86 1450C718.86 1450 745.14 1507 745.14 1507C748.03 1513.5 754.67 1529.02 758.53 1534C766.91 1544.82 780.66 1549.98 794 1550C794 1550 923 1550 923 1550C935.59 1549.98 946.09 1546.34 954.91 1536.99C965.62 1525.63 960.61 1519.21 972 1519C972 1519 1053 1519 1053 1519C1068.37 1518.82 1082.04 1510.7 1089.22 1497C1090.93 1493.74 1092.82 1489.74 1092.82 1486C1092.82 1480.88 1088.54 1473 1085.47 1469C1085.47 1469 1047.16 1426 1047.16 1426C1047.16 1426 974.83 1345 974.83 1345C974.83 1345 955.96 1324 955.96 1324C948.83 1316.55 944.95 1314.28 939.69 1305C935.44 1297.51 933.06 1297.98 933 1289C933 1289 933 1276 933 1276C933 1276 946 1276 946 1276C957.01 1276.02 960.04 1278.6 970 1282C970 1282 1008 1295 1008 1295C1008 1295 1137 1339.33 1137 1339.33C1137 1339.33 1173 1351.67 1173 1351.67C1183.68 1355.23 1189.44 1357.98 1201 1358C1201 1358 1331 1358 1331 1358C1346.89 1357.98 1360.79 1351.34 1368.69 1337C1370.77 1333.21 1373.11 1328.42 1372.78 1324C1372.44 1319.6 1368.77 1312.58 1366.21 1309C1366.21 1309 1339.09 1280 1339.09 1280C1339.09 1280 1300.04 1239 1300.04 1239C1300.04 1239 1290 1228 1290 1228C1290 1228 1268 1205 1268 1205C1264.86 1201.86 1258.23 1195.91 1256.74 1192C1255.55 1188.89 1256 1176.11 1256 1172C1256 1172 2509 1172 2509 1172C2509 1172 2509 1293 2509 1293C2509 1295.48 2508.91 1298.63 2509.57 1301C2511.58 1308.34 2520.77 1315.31 2527 1319.19C2540.98 1327.89 2557.62 1332.17 2574 1332.9C2574 1332.9 2588 1332 2588 1332C2588 1332 2745 1332 2745 1332C2745 1332 2800 1332 2800 1332C2800 1332 2812 1332.82 2812 1332.82C2812 1332.82 2823 1332 2823 1332C2823 1332 3163 1332 3163 1332C3163 1332 3176 1332.92 3176 1332.92C3176 1332.92 3189 1332 3189 1332C3189 1332 3283 1332 3283 1332C3283 1332 3300 1332 3300 1332C3300 1332 3312 1332.9 3312 1332.9C3316.71 1333.11 3330.2 1331.13 3335 1329.85C3357.68 1323.79 3377.96 1304.56 3378 1280C3378 1280 3378 1175 3378 1175C3378 1175 3377 1160 3377 1160C3377 1160 3377 1147 3377 1147C3376.83 1133.2 3369 1122.07 3363.26 1110C3363.26 1110 3359.67 1101 3359.67 1101C3359.67 1101 3351.26 1084 3351.26 1084C3351.26 1084 3347.21 1074 3347.21 1074C3347.21 1074 3336.33 1052 3336.33 1052C3336.33 1052 3332.74 1043 3332.74 1043C3332.74 1043 3324.33 1026 3324.33 1026C3324.33 1026 3320.74 1017 3320.74 1017C3320.74 1017 3310.79 997 3310.79 997C3310.79 997 3306.74 987 3306.74 987C3306.74 987 3298.33 970 3298.33 970C3298.33 970 3294.74 961 3294.74 961C3294.74 961 3284.79 941 3284.79 941C3284.79 941 3280.74 931 3280.74 931C3280.74 931 3272.33 914 3272.33 914C3272.33 914 3269.21 906 3269.21 906C3269.21 906 3246.79 859 3246.79 859C3246.79 859 3242.74 849 3242.74 849C3242.74 849 3232.79 829 3232.79 829C3232.79 829 3227.75 817 3227.75 817C3227.75 817 3220.33 802 3220.33 802C3220.33 802 3216.74 793 3216.74 793C3216.74 793 3203.25 766 3203.25 766C3203.25 766 3195.93 750 3195.93 750C3187.56 736.28 3175.82 730.02 3160 730C3160 730 1942 730 1942 730C1942 730 1573 730 1573 730C1573 730 1389 730 1389 730C1389 730 1370 728 1370 728C1370 728 1366 728 1366 728ZM1009 211.46C1019.68 210.12 1017.87 215.66 1010 220.4C1010 220.4 974 241.15 974 241.15C974 241.15 845 315.42 845 315.42C845 315.42 805 338.42 805 338.42C801.6 340.37 792.78 346.24 789.15 345.58C785.42 344.91 786.57 341.37 787.71 339C787.71 339 798.34 322 798.34 322C798.34 322 830.31 272 830.31 272C832.75 268.21 842.15 252.59 844.52 250.56C847.47 248.02 855.06 247.05 859 246.12C859 246.12 894 238 894 238C894 238 1009 211.46 1009 211.46ZM415.15 230.01C420.09 230.36 423.26 234.18 427 237.2C427 237.2 451 256.6 451 256.6C451 256.6 546 333.4 546 333.4C546 333.4 576 357.61 576 357.61C578.16 359.44 585.28 366.08 578.85 367.65C576.5 368.22 571.45 366.74 569 366.13C569 366.13 550 361.37 550 361.37C550 361.37 479 343.63 479 343.63C479 343.63 458 338.37 458 338.37C454.91 337.6 450.77 336.92 448.51 334.57C446.3 332.28 444.47 325.27 443.31 322C443.31 322 433.67 295 433.67 295C433.67 295 416.67 247 416.67 247C415.69 244.08 411.85 234.71 412.7 232.23C413.37 230.26 414.98 230.1 415.15 230.01ZM1292.98 315.99C1302.3 315.8 1294.63 324.92 1292.08 328C1292.08 328 1262.42 364 1262.42 364C1262.42 364 1166.42 481 1166.42 481C1166.42 481 1141.08 512 1141.08 512C1138.75 514.8 1133.22 522.38 1129.96 523.3C1125.93 524.44 1115.92 517.8 1112 515.75C1112 515.75 1064 489.69 1064 489.69C1059.95 487.5 1045.36 481.8 1048.71 476.08C1050.39 473.2 1063.38 465.41 1067 463C1067 463 1114 432.33 1114 432.33C1114 432.33 1232 355.31 1232 355.31C1232 355.31 1270 330.33 1270 330.33C1270 330.33 1292.98 315.99 1292.98 315.99ZM766 350.3C767.63 350.24 769.3 349.93 770.94 350.3C775.2 350.77 775.16 353.73 772.68 356.56C772.68 356.56 758 368.4 758 368.4C758 368.4 713 404 713 404C709.25 407 695.6 418.45 692 419.35C688.42 420.25 671.58 415.5 667 414.37C667 414.37 607 400.13 607 400.13C607 400.13 587.02 395.32 587.02 395.32C584.65 394.5 581.24 392.54 583.08 389.51C584.56 387.06 592.18 386.2 595 385.58C595 385.58 629 378.6 629 378.6C629 378.6 716 360.79 716 360.79C716 360.79 766 350.3 766 350.3ZM785 362.89C791.14 361.81 800.28 368.39 806 371.25C806 371.25 856 396.75 856 396.75C856 396.75 947 443.74 947 443.74C947 443.74 1056 499.69 1056 499.69C1056 499.69 1083 513.25 1083 513.25C1083 513.25 1111 527.75 1111 527.75C1111 527.75 1126 535.43 1126 535.43C1127.77 536.46 1131.01 538.26 1131.83 540.19C1133.28 543.61 1129.69 544.76 1127 544.43C1127 544.43 1110 539.88 1110 539.88C1110 539.88 1039 520.58 1039 520.58C1039 520.58 782 450.29 782 450.29C782 450.29 721 433.63 721 433.63C717.07 432.61 702.74 429.92 701.82 425.91C701.26 423.44 703.44 421.66 705.11 420.29C705.11 420.29 720 409.37 720 409.37C720 409.37 759 381.12 759 381.12C759 381.12 785 362.89 785 362.89ZM568.02 402.08C573.68 400.91 573.14 404.9 571.76 409C571.76 409 561.6 434 561.6 434C561.6 434 520.58 535 520.58 535C520.58 535 503 578 503 578C501.14 582.65 496 596.71 493.5 599.91C491.44 602.56 482.1 610.17 479 612.75C479 612.75 452 635.41 452 635.41C452 635.41 374 701.08 374 701.08C374 701.08 330 738.08 330 738.08C326.73 740.81 312.87 752.97 310.02 753.79C306.76 754.73 304.38 752.22 306.45 748C306.45 748 318.13 732 318.13 732C318.13 732 367.87 666 367.87 666C367.87 666 505.63 483 505.63 483C505.63 483 547.13 428 547.13 428C551.87 421.68 562.38 406.01 568.02 402.08ZM585.27 413.03C589.34 411.6 597.48 412.98 602 413.58C602 413.58 627 416.02 627 416.02C630.21 416.24 639.59 416.61 638.26 421.84C637.45 424.99 626.15 431.24 623 433.33C623 433.33 590 454.67 590 454.67C587.03 456.64 574.55 465.07 572.02 465.69C564.5 467.55 568.28 457.17 569.33 454C569.33 454 579.05 426 579.05 426C580.67 421.58 581.81 416.3 585.27 413.03ZM1102 720C1102 720 1131.83 686 1131.83 686C1131.83 686 1188.72 623 1188.72 623C1188.72 623 1209.42 600 1209.42 600C1211.16 598.04 1215.33 593.05 1218.27 595.08C1221.24 596.95 1218.86 603.45 1218.27 606C1218.27 606 1208.02 639 1208.02 639C1208.02 639 1179.72 732 1179.72 732C1179.72 732 1170.34 763 1170.34 763C1168.77 768.04 1167.78 773.46 1165 778C1165 778 1165 761 1165 761C1164.92 743.96 1153.78 726.92 1137 721.91C1126.89 718.9 1112.77 720 1102 720ZM633.98 643.57C638.15 643.75 640.27 645.73 637.4 649.72C635.79 651.95 627.67 657.9 625 660C625 660 578 696.42 578 696.42C574 699.54 562.27 709.73 558 710.29C554.8 710.7 537.45 706.5 533 705.6C533 705.6 478 694.6 478 694.6C478 694.6 460.02 690.86 460.02 690.86C457.51 689.93 454.43 687.55 456.79 684.72C458.47 682.72 466.22 681.52 469 680.88C469 680.88 501 673.63 501 673.63C501 673.63 585 654.58 585 654.58C585 654.58 633.98 643.57 633.98 643.57ZM583 720C587.17 714.31 595.53 707.89 601 702.93C601 702.93 640 668.16 640 668.16C640 668.16 653 656.82 653 656.82C654.91 655.36 657.31 653.33 659.9 654.25C663.06 655.37 670.48 668.56 672.69 672C672.69 672 705.19 723 705.19 723C705.19 723 739.66 777 739.66 777C741.65 780.07 751.04 792.08 746.64 794.94C743.77 796.81 736.89 793.38 734 792.15C734 792.15 701 778.4 701 778.4C701 778.4 667 764.28 667 764.28C667 764.28 652.28 757.79 652.28 757.79C648.84 755.28 648.83 750.71 647.44 747C645.95 743.01 642.63 738.19 639.82 735C623.22 716.21 605.4 720 583 720ZM429.98 697.69C436.64 697.31 434.73 702.1 432.24 706C432.24 706 414.12 731 414.12 731C414.12 731 390.12 764 390.12 764C384.54 771.58 383.84 775.93 374 776C374 776 351 775 351 775C351 775 320 773 320 773C320 773 315 773 315 773C311.96 772.96 302.22 772.77 305.08 767.19C306.31 764.8 311.57 762.38 314 761C314 761 338 747.77 338 747.77C338 747.77 398 714.7 398 714.7C398 714.7 429.98 697.69 429.98 697.69ZM537 748C537 748 536 760 536 760C536 760 536 780 536 780C535.96 782.07 535.99 784.03 534.98 785.91C533.27 789.09 518.76 800.28 515 803.41C511.32 806.47 503.46 814.04 499 814.64C495.46 815.11 485.01 811.66 481 810.63C481 810.63 441 800.42 441 800.42C441 800.42 401 790.29 401 790.29C398.09 789.46 388.54 788.03 389.03 784C389.42 780.75 394.43 779.77 397 779.21C397 779.21 424 773.35 424 773.35C424 773.35 496 757.42 496 757.42C496 757.42 537 748 537 748ZM610 1108C616.32 1106.2 629.84 1107 637 1107C637 1107 688 1107 688 1107C688 1107 854 1107 854 1107C854 1107 1395 1107 1395 1107C1407.89 1107.02 1409.77 1104.46 1421 1101.54C1421 1101.54 1426.2 1100.52 1426.2 1100.52C1426.2 1100.52 1432 1097.87 1432 1097.87C1448.78 1091.55 1461.17 1083.59 1475 1072.25C1478.92 1069.04 1479.62 1069.28 1484 1064.98C1489.55 1059.53 1488.26 1059.54 1491.52 1055.58C1497 1048.92 1502.57 1042.38 1507.14 1035C1515.7 1021.18 1522.76 1001.96 1526.22 986.16C1526.22 986.16 1527.93 980.91 1527.93 980.91C1527.93 980.91 1527.93 973.09 1527.93 973.09C1528.62 968.7 1529.88 969.7 1530 963C1530 963 1530 941 1530 941C1529.98 931.36 1528.72 934.19 1527.93 928.91C1527.93 928.91 1527.93 921.09 1527.93 921.09C1527.93 921.09 1521.27 897.27 1521.27 897.27C1515.76 882.91 1511.35 874.41 1502.79 861.58C1502.79 861.58 1495.7 850.99 1495.7 850.99C1495.7 850.99 1483 838 1483 838C1483 838 1472.01 827.3 1472.01 827.3C1467.28 823.47 1458.42 818.29 1453 815.18C1453 815.18 1441.39 808.45 1441.39 808.45C1432.05 804.2 1422.18 801.14 1412.28 798.58C1412.28 798.58 1399.91 795.01 1399.91 795.01C1399.91 795.01 1391.17 795.01 1391.17 795.01C1387.18 794.06 1388.52 793.11 1382 793C1382 793 1356 793 1356 793C1349.3 793.12 1350.3 794.38 1345.91 795.07C1345.91 795.07 1338.09 795.07 1338.09 795.07C1338.09 795.07 1325.72 798.58 1325.72 798.58C1291.63 807.42 1269.17 822.13 1245.05 848C1232.64 861.31 1221.79 881.77 1216 899C1214.96 902.11 1211.46 914.45 1209.42 915.98C1208 917.04 1205.69 916.96 1204 917C1204 917 1186 917 1186 917C1183.7 917 1179.58 917.38 1178.02 915.4C1175.86 912.66 1177.85 908.65 1178.54 905.83C1178.54 905.83 1179.43 899.28 1179.43 899.28C1179.43 899.28 1183.37 887.27 1183.37 887.27C1189.63 868.29 1198.86 849.96 1211.22 834.26C1211.22 834.26 1214.76 829.04 1214.76 829.04C1214.76 829.04 1222.62 820.96 1222.62 820.96C1222.62 820.96 1228.01 813.67 1228.01 813.67C1231.75 809.81 1232.73 810.42 1235.96 807.62C1235.96 807.62 1244.74 799.2 1244.74 799.2C1255.34 791.23 1279.18 777.39 1291.43 772.68C1291.43 772.68 1314.84 765.54 1314.84 765.54C1314.84 765.54 1327.17 761.99 1327.17 761.99C1327.17 761.99 1333.91 761.99 1333.91 761.99C1338.14 760.97 1336.52 760.1 1343 759.94C1343 759.94 1352.96 759.94 1352.96 759.94C1358.45 759.21 1355.32 758.02 1365 758C1365 758 1375 758 1375 758C1381.7 758.1 1380.51 759.33 1385.04 759.94C1385.04 759.94 1397 759.94 1397 759.94C1400.92 760.06 1410.97 762.51 1415.17 763.54C1415.17 763.54 1421.72 764.43 1421.72 764.43C1421.72 764.43 1431.16 767.54 1431.16 767.54C1431.16 767.54 1436.56 768.69 1436.56 768.69C1436.56 768.69 1452.27 775.27 1452.27 775.27C1463.73 779.67 1474.39 785.74 1484.52 792.68C1484.52 792.68 1489.48 796.77 1489.48 796.77C1489.48 796.77 1493.96 799.76 1493.96 799.76C1493.96 799.76 1498.74 804.22 1498.74 804.22C1498.74 804.22 1504.65 808.37 1504.65 808.37C1504.65 808.37 1515.24 819.04 1515.24 819.04C1515.24 819.04 1518.78 824.26 1518.78 824.26C1518.78 824.26 1525.8 831.74 1525.8 831.74C1536.26 845.66 1545.51 862.51 1551.73 878.73C1551.73 878.73 1554.62 885.27 1554.62 885.27C1557.75 894.24 1559.53 903.64 1561.26 912.91C1562.06 917.18 1562.9 915.54 1563.13 922C1563.13 922 1563.13 930.91 1563.13 930.91C1564.16 935.9 1564.98 932.62 1565 942C1565 942 1565 962 1565 962C1564.88 969.71 1563.13 967.27 1563 975C1563 975 1563 979 1563 979C1562.96 985.38 1556.8 1011.13 1554.32 1017.57C1554.32 1017.57 1551.73 1023.27 1551.73 1023.27C1547.43 1034.47 1542.03 1045.04 1535.72 1055.23C1535.72 1055.23 1531.8 1062.26 1531.8 1062.26C1531.8 1062.26 1520.78 1075.74 1520.78 1075.74C1520.78 1075.74 1517.24 1080.96 1517.24 1080.96C1517.24 1080.96 1504.65 1093.63 1504.65 1093.63C1504.65 1093.63 1498.04 1098.38 1498.04 1098.38C1498.04 1098.38 1491.26 1104.8 1491.26 1104.8C1491.26 1104.8 1472.23 1116.72 1472.23 1116.72C1457.36 1125.93 1442.05 1132.04 1425.16 1136.46C1425.16 1136.46 1412.83 1139.95 1412.83 1139.95C1412.83 1139.95 1407.04 1139.95 1407.04 1139.95C1401.5 1140.81 1404.67 1141.98 1395 1142C1395 1142 575 1142 575 1142C575 1142 575 854 575 854C575 854 575 783 575 783C575 783 575 767 575 767C575 767 576.6 761.02 576.6 761.02C576.6 761.02 584 760 584 760C584 760 610 760 610 760C610 760 610 1108 610 1108ZM871 760C871 760 972 760 972 760C972 760 1040 760 1040 760C1040 760 1105 760 1105 760C1108.65 760 1122.84 759.05 1124.83 761.57C1126.25 763.38 1126 767.74 1126 770C1126 770 1126 787 1126 787C1125.97 789.15 1126.11 792.52 1124.26 794.01C1122.72 795.25 1118.94 795 1117 795C1117 795 928 795 928 795C928 795 878 795 878 795C870.51 794.86 871.01 792.74 871 786C871 786 871 760 871 760ZM1700 795C1700 795 1499 795 1499 795C1487.64 794.98 1485.64 790.77 1477 784.54C1473.19 781.79 1457.35 772.99 1452.87 771.42C1450 770.42 1436.19 765.5 1435.15 763.51C1433.08 759.55 1441.21 760 1443 760C1443 760 2330 760 2330 760C2330 760 2657 760 2657 760C2657 760 2821 760 2821 760C2827.7 760.1 2826.51 761.33 2831.04 761.99C2831.04 761.99 2839.91 761.99 2839.91 761.99C2839.91 761.99 2861.72 766.43 2861.72 766.43C2878.19 770.44 2899.7 781.01 2913.26 791.2C2913.26 791.2 2933.24 811.04 2933.24 811.04C2933.24 811.04 2942.78 825.23 2942.78 825.23C2947.57 833.34 2953.12 850.85 2954.95 860.17C2954.95 860.17 2954.95 865.96 2954.95 865.96C2955.81 871.5 2956.98 868.33 2957 878C2957 878 2957 900 2957 900C2956.99 904.53 2953.53 925.37 2952.29 930C2942.34 967.05 2912.92 995.72 2877 1008C2877 1008 2877 1010 2877 1010C2882.67 1012.7 2882.5 1014.57 2886.13 1019.07C2886.13 1019.07 2904.44 1045 2904.44 1045C2904.44 1045 2970 1136 2970 1136C2970 1136 2984.98 1103 2984.98 1103C2984.98 1103 2989.5 1092 2989.5 1092C2989.5 1092 2999.45 1072 2999.45 1072C2999.45 1072 3002.55 1064 3002.55 1064C3002.55 1064 3011.45 1046 3011.45 1046C3011.45 1046 3015.02 1037 3015.02 1037C3015.02 1037 3025.34 1016.29 3025.34 1016.29C3025.34 1016.29 3027.5 1010 3027.5 1010C3027.5 1010 3037.21 990.2 3037.21 990.2C3037.21 990.2 3039.24 984.28 3039.24 984.28C3039.24 984.28 3050.84 961 3050.84 961C3050.84 961 3053.24 954.28 3053.24 954.28C3053.24 954.28 3062.45 935 3062.45 935C3062.45 935 3065.55 927 3065.55 927C3065.55 927 3076.45 905 3076.45 905C3076.45 905 3079.55 897 3079.55 897C3079.55 897 3088.45 879 3088.45 879C3088.45 879 3092.02 870 3092.02 870C3092.02 870 3102.89 848 3102.89 848C3102.89 848 3127.98 794 3127.98 794C3127.98 794 3134 780 3134 780C3134 780 3140.45 767 3140.45 767C3140.45 767 3143.58 761.02 3143.58 761.02C3143.58 761.02 3151 760 3151 760C3151 760 3171 760 3171 760C3171.54 767.63 3182.14 785.81 3186.03 793.6C3186.03 793.6 3192.45 808.39 3192.45 808.39C3192.45 808.39 3201.62 826.8 3201.62 826.8C3201.62 826.8 3204.08 833.57 3204.08 833.57C3204.08 833.57 3214.83 855.2 3214.83 855.2C3214.83 855.2 3218.45 864.39 3218.45 864.39C3218.45 864.39 3227.62 882.8 3227.62 882.8C3227.62 882.8 3230.08 889.57 3230.08 889.57C3230.08 889.57 3241.62 912.8 3241.62 912.8C3241.62 912.8 3244.08 919.57 3244.08 919.57C3244.08 919.57 3253.62 938.8 3253.62 938.8C3253.62 938.8 3256.45 946.39 3256.45 946.39C3256.45 946.39 3267.62 968.8 3267.62 968.8C3267.62 968.8 3270.08 975.57 3270.08 975.57C3270.08 975.57 3279.62 994.8 3279.62 994.8C3279.62 994.8 3282.45 1002.39 3282.45 1002.39C3282.45 1002.39 3293.62 1024.8 3293.62 1024.8C3293.62 1024.8 3296.08 1031.57 3296.08 1031.57C3296.08 1031.57 3305.62 1050.8 3305.62 1050.8C3305.62 1050.8 3308.08 1057.57 3308.08 1057.57C3308.08 1057.57 3319.62 1080.8 3319.62 1080.8C3319.62 1080.8 3322.08 1087.57 3322.08 1087.57C3322.08 1087.57 3331.62 1106.8 3331.62 1106.8C3331.62 1106.8 3334.45 1114.39 3334.45 1114.39C3337.64 1121.4 3346.14 1135.29 3347 1142C3347 1142 3316 1142 3316 1142C3316 1142 3308.55 1141.18 3308.55 1141.18C3308.55 1141.18 3299.77 1124 3299.77 1124C3299.77 1124 3293.02 1110.39 3293.02 1110.39C3293.02 1110.39 3290.55 1103.61 3290.55 1103.61C3290.55 1103.61 3281.38 1085.2 3281.38 1085.2C3281.38 1085.2 3278.92 1078.43 3278.92 1078.43C3278.92 1078.43 3274.17 1068.8 3274.17 1068.8C3274.17 1068.8 3267.02 1054.39 3267.02 1054.39C3267.02 1054.39 3264.16 1046.8 3264.16 1046.8C3264.16 1046.8 3253.02 1024.39 3253.02 1024.39C3253.02 1024.39 3250.92 1018.43 3250.92 1018.43C3250.92 1018.43 3245.02 1006.39 3245.02 1006.39C3245.02 1006.39 3242.55 999.61 3242.55 999.61C3242.55 999.61 3229.38 973.2 3229.38 973.2C3229.38 973.2 3226.55 965.61 3226.55 965.61C3226.55 965.61 3217.38 947.2 3217.38 947.2C3217.38 947.2 3214.92 940.43 3214.92 940.43C3214.92 940.43 3205.38 921.2 3205.38 921.2C3205.38 921.2 3202.92 914.43 3202.92 914.43C3202.92 914.43 3191.38 891.2 3191.38 891.2C3191.38 891.2 3188.92 884.43 3188.92 884.43C3188.92 884.43 3179.38 865.2 3179.38 865.2C3179.38 865.2 3176.92 858.43 3176.92 858.43C3176.92 858.43 3168.57 841.6 3168.57 841.6C3168.57 841.6 3158 816 3158 816C3158 816 3155 816 3155 816C3154.76 824.62 3148.03 833.75 3144.45 841.61C3144.45 841.61 3141.62 849.2 3141.62 849.2C3141.62 849.2 3132.84 866.8 3132.84 866.8C3132.84 866.8 3129.62 875.2 3129.62 875.2C3129.62 875.2 3118.84 896.8 3118.84 896.8C3118.84 896.8 3115.62 905.2 3115.62 905.2C3115.62 905.2 3106.45 923.61 3106.45 923.61C3106.45 923.61 3103.62 931.2 3103.62 931.2C3103.62 931.2 3094.08 950.43 3094.08 950.43C3094.08 950.43 3091.62 957.2 3091.62 957.2C3091.62 957.2 3080.08 980.43 3080.08 980.43C3080.08 980.43 3077.62 987.2 3077.62 987.2C3077.62 987.2 3062.45 1017.61 3062.45 1017.61C3062.45 1017.61 3059.98 1024.39 3059.98 1024.39C3059.98 1024.39 3054.08 1036.43 3054.08 1036.43C3054.08 1036.43 3051.98 1042.39 3051.98 1042.39C3051.98 1042.39 3042.45 1061.61 3042.45 1061.61C3042.45 1061.61 3039.98 1068.39 3039.98 1068.39C3039.98 1068.39 3030.08 1088.43 3030.08 1088.43C3030.08 1088.43 3027.62 1095.2 3027.62 1095.2C3027.62 1095.2 3018.45 1113.61 3018.45 1113.61C3018.45 1113.61 3013.63 1125.2 3013.63 1125.2C3011.96 1128.54 3007.25 1139.65 3004.45 1141.18C3002.88 1142.03 3000.73 1141.97 2999 1142C2999 1142 2939 1142 2939 1142C2936.26 1142 2933.16 1142.29 2930.76 1140.75C2928.04 1139 2926.72 1135.53 2924.62 1133.03C2924.62 1133.03 2905.77 1106.48 2905.77 1106.48C2905.77 1106.48 2896.2 1094.26 2896.2 1094.26C2896.2 1094.26 2879.77 1070.48 2879.77 1070.48C2879.77 1070.48 2876.2 1066.26 2876.2 1066.26C2876.2 1066.26 2869.77 1056.48 2869.77 1056.48C2869.77 1056.48 2856.71 1039 2856.71 1039C2856.71 1039 2846.71 1025 2846.71 1025C2845.52 1023.32 2844.02 1020.4 2842.43 1019.31C2840.44 1017.94 2837.34 1017.91 2835 1018.05C2829.11 1018.42 2830.74 1019.98 2821 1020C2821 1020 2706 1020 2706 1020C2706 1020 2706 1142 2706 1142C2706 1142 2671 1142 2671 1142C2671 1142 2671 986 2671 986C2671 986 2788 986 2788 986C2788 986 2818 986 2818 986C2827.64 985.98 2824.81 984.72 2830.09 983.93C2830.09 983.93 2839.91 983.93 2839.91 983.93C2839.91 983.93 2852.28 980.42 2852.28 980.42C2866.66 976.69 2879.47 971.57 2891.26 962.22C2905.78 950.69 2916.11 933.77 2920.54 915.83C2920.54 915.83 2921.24 910.17 2921.24 910.17C2922.3 904.36 2922.98 907.78 2923 899C2923 899 2923 880 2923 880C2922.9 873.91 2922.12 874.83 2921.25 870C2918.13 852.65 2912.51 839.54 2900.74 826.02C2897.3 822.07 2896.03 822.21 2892.58 819.5C2877.3 807.52 2865.88 802.88 2847.16 798.78C2847.16 798.78 2841.91 797.07 2841.91 797.07C2841.91 797.07 2836.09 797.07 2836.09 797.07C2830.75 796.26 2833.63 795.02 2824 795C2824 795 1735 795 1735 795C1735 795 1735 1142 1735 1142C1735 1142 1700 1142 1700 1142C1700 1142 1700 795 1700 795ZM290.98 779.05C296.78 779.95 295.06 783.97 293.22 788C293.22 788 281.42 813 281.42 813C281.42 813 265.31 847 265.31 847C265.31 847 232.26 917 232.26 917C232.26 917 218.75 946 218.75 946C217.45 948.58 215.07 954.17 211.26 952.6C208.61 951.51 206.46 944.66 205.4 942C205.4 942 193.4 912 193.4 912C193.4 912 181 881 181 881C179.66 877.64 176.54 871.49 177.64 868C178.75 864.5 183.18 861.54 186 859.35C186 859.35 205 844.65 205 844.65C205 844.65 263 799.65 263 799.65C268.89 795.1 285.35 781.21 290.98 779.05ZM330.98 778.82C335.38 779.39 337.04 781.78 333.68 785.54C333.68 785.54 304 808.37 304 808.37C301.26 810.44 295.45 815.72 292.06 815.46C287.66 815.12 288.86 810.74 289.82 808C289.82 808 296.8 790 296.8 790C297.71 787.68 299.13 783.14 300.7 781.43C303.31 778.58 307.49 779.01 311 778.82C311 778.82 330.98 778.82 330.98 778.82ZM992 842.06C993.62 839.45 995.34 836.51 998.09 835.02C1000.76 833.58 1006.83 834 1010 834C1010 834 1036 834 1036 834C1036 834 1124 834 1124 834C1140.27 833.97 1140.4 830.05 1151 826C1149.98 830.46 1147.41 842.62 1142.89 844.17C1139.85 845.22 1132.77 842.58 1129 842.06C1129 842.06 1102 842.06 1102 842.06C1102 842.06 992 842.06 992 842.06ZM871 882C871 882 972 882 972 882C972 882 1040 882 1040 882C1040 882 1105 882 1105 882C1108.68 882 1122.96 881.05 1124.98 883.6C1126.23 885.19 1126 889.01 1126 891C1126 891 1126 909 1126 909C1125.96 911.14 1126.04 913.77 1124.4 915.4C1122.48 917.32 1118.54 916.99 1116 917C1116 917 928 917 928 917C928 917 878 917 878 917C870.51 916.86 871.01 914.74 871 908C871 908 871 882 871 882ZM1912 882C1912 882 1938 882 1938 882C1938 882 1945.4 883.02 1945.4 883.02C1945.4 883.02 1947 891 1947 891C1947 891 1947 986 1947 986C1947 986 2107 986 2107 986C2107 986 2157 986 2157 986C2157 986 2184 985 2184 985C2184 985 2183 958 2183 958C2183 958 2183 905 2183 905C2183 905 2183 889 2183 889C2183 889 2184.6 883.02 2184.6 883.02C2184.6 883.02 2192 882 2192 882C2192 882 2218 882 2218 882C2218 882 2218 1142 2218 1142C2218 1142 2192 1142 2192 1142C2190.01 1142 2186.19 1142.23 2184.6 1140.98C2182.62 1139.41 2183 1135.3 2183 1133C2183 1133 2183 1058 2183 1058C2183 1049.72 2182.11 1027.67 2184 1021C2184 1021 2157 1020 2157 1020C2157 1020 2107 1020 2107 1020C2107 1020 1947 1020 1947 1020C1947 1020 1947 1113 1947 1113C1947 1113 1947 1135 1947 1135C1947 1135 1945.4 1140.98 1945.4 1140.98C1945.4 1140.98 1938 1142 1938 1142C1938 1142 1912 1142 1912 1142C1912 1142 1912 882 1912 882ZM1040 956C1040 956 1124 956 1124 956C1129.87 955.99 1135.52 955.37 1141 953.05C1145.38 951.19 1148.95 947.3 1153 948.3C1156.68 949.22 1159.05 953.42 1171 955.77C1171 955.77 1209 955.77 1209 955.77C1219.4 955.98 1226.7 954.03 1235 947.48C1238.08 945.05 1245.22 935.7 1248.09 935.82C1250.89 935.94 1262.78 944.56 1266 946.58C1266 946.58 1306 972.67 1306 972.67C1309.54 975.02 1320.46 981.37 1322.38 984.18C1325.71 989.04 1320.79 990.12 1317 989.83C1317 989.83 1295 987.15 1295 987.15C1295 987.15 1255 982.28 1255 982.28C1255 982.28 1129 967.15 1129 967.15C1129 967.15 1071 960.16 1071 960.16C1071 960.16 1040 956 1040 956ZM748 1068C752.24 1062.35 770.57 1046.83 777 1040.92C777 1040.92 841 982.98 841 982.98C841 982.98 859 966.72 859 966.72C867.04 959.64 867.78 956.02 879 956C879 956 939 956 939 956C939 956 972 956 972 956C976.81 956 984.74 955.31 989 957C989 957 942 985 942 985C942 985 854 1037.8 854 1037.8C854 1037.8 820 1058.2 820 1058.2C810.81 1063.72 806.99 1067.98 796 1068C796 1068 748 1068 748 1068ZM536 963C536 965.6 536.35 970.46 534.98 972.61C533.68 974.65 528.29 977.28 526 978.58C526 978.58 505 990.23 505 990.23C505 990.23 407 1044.58 407 1044.58C407 1044.58 377 1061.23 377 1061.23C374.49 1062.59 369.09 1066.36 366.32 1064.87C361.39 1062.22 368.25 1054.53 370.12 1052C370.12 1052 395.63 1017 395.63 1017C398.64 1012.95 408.08 999.26 411.3 997.08C414.48 994.93 422.97 993.18 427 992.12C427 992.12 453 985.13 453 985.13C453 985.13 536 963 536 963ZM221.62 967.01C225.62 965.31 228.81 966.43 233 967.01C233 967.01 259 971.25 259 971.25C259 971.25 291 976.42 291 976.42C294.64 976.99 303.03 977.96 305.82 979.85C309.52 982.38 316.73 997.23 319.42 1002C319.42 1002 346.25 1051 346.25 1051C346.25 1051 356.3 1070 356.3 1070C357.35 1074.82 353.99 1076.28 350 1073.96C350 1073.96 330 1058.4 330 1058.4C330 1058.4 250 995.21 250 995.21C250 995.21 226 976.34 226 976.34C222.89 973.81 219.14 971.14 221.62 967.01ZM315.6 977.02C320.26 975.09 330.76 977.97 336 979C336 979 382 987.92 382 987.92C385.97 988.59 400.14 990.1 401.27 994.14C402.32 997.9 395.15 1005.96 392.87 1009C392.87 1009 372.42 1036 372.42 1036C365.82 1044.49 365.85 1047.38 356 1046.98C348.14 1046.66 346.54 1040.1 343.14 1034C343.14 1034 321.58 995 321.58 995C318.99 990.43 312.28 981.92 315.6 977.02ZM2329 986C2329 986 2592 986 2592 986C2592 986 2592 1020 2592 1020C2592 1020 2329 1020 2329 1020C2329 1020 2329 986 2329 986ZM302.3 1088.08C307.38 1086.93 307.96 1090.95 309.33 1095C309.33 1095 318 1121 318 1121C318 1121 356 1235 356 1235C356 1235 366.2 1265 366.2 1265C366.84 1267.56 369.29 1273.96 366.2 1275.92C363.02 1278.22 355.54 1271.03 353 1269C353 1269 318 1240.8 318 1240.8C318 1240.8 293 1220.8 293 1220.8C290.14 1218.51 283.88 1214.16 282.6 1210.91C281.03 1206.93 284.75 1188.3 285.58 1183C285.58 1183 296.08 1116 296.08 1116C297.14 1109.61 298.31 1092.18 302.3 1088.08ZM2329 1142C2329 1142 2329 1116 2329 1116C2329 1114.06 2328.75 1110.28 2329.99 1108.74C2331.7 1106.62 2336.5 1107 2339 1107C2339 1107 2533 1107 2533 1107C2533 1107 2584 1107 2584 1107C2592.11 1107.11 2591.99 1108.52 2592 1116C2592 1116 2592 1142 2592 1142C2592 1142 2329 1142 2329 1142ZM701 1182C701 1182 857 1182 857 1182C857 1182 902 1182 902 1182C902 1182 924 1183 924 1183C924 1183 884 1202.25 884 1202.25C884 1202.25 863 1211.79 863 1211.79C863 1211.79 846 1209.61 846 1209.61C846 1209.61 814 1203.61 814 1203.61C814 1203.61 738 1189.42 738 1189.42C738 1189.42 701 1182 701 1182ZM943 1182.63C943 1182.63 980 1182 980 1182C980 1182 1052 1182 1052 1182C1054.09 1182 1057.06 1181.88 1059 1182.6C1063.82 1184.37 1073.37 1195.8 1077.17 1200C1077.17 1200 1091.91 1215 1091.91 1215C1091.91 1215 1122 1247 1122 1247C1122 1247 1169.96 1297 1169.96 1297C1169.96 1297 1179.01 1307 1179.01 1307C1179.01 1307 1192.55 1321 1192.55 1321C1194.15 1323.28 1195.39 1326.92 1191.77 1328.08C1189.16 1328.91 1177.3 1324.1 1174 1323C1174 1323 1128 1307.33 1128 1307.33C1128 1307.33 947 1245 947 1245C947 1245 893 1226.58 893 1226.58C889.26 1225.18 876.98 1222.19 876.45 1218C875.92 1213.81 887.7 1209.4 891 1207.75C891 1207.75 943 1182.63 943 1182.63ZM2531 1289C2531 1289 2543 1296.68 2543 1296.68C2556.43 1303.84 2575.21 1306.84 2590 1302.84C2603.91 1299.08 2616.45 1285.7 2607.77 1271C2603.37 1263.54 2594.77 1260.57 2587 1258C2568.82 1251.99 2539.54 1250.32 2531.48 1230C2529.67 1225.45 2529.95 1220.8 2530 1216C2530.41 1182.32 2575.67 1178.5 2600 1185.72C2608.12 1188.13 2609.72 1189.15 2617 1193C2617 1193 2614 1203 2614 1203C2604.01 1200.15 2603.53 1196.49 2585 1193.59C2568.71 1191.04 2544.38 1196.11 2542.34 1216C2540.95 1229.54 2554.09 1236.59 2565 1239.98C2585.89 1246.45 2622.66 1249.16 2623 1278C2623.05 1282.62 2623.13 1285.52 2621.64 1290C2612.97 1315.99 2577.45 1317.98 2555 1312.77C2548.19 1311.18 2539.92 1308.23 2534 1304.53C2531.67 1303.08 2528.45 1300.92 2527.99 1297.99C2527.63 1295.72 2530.04 1291.22 2531 1289ZM3164 1183.21C3164 1183.21 3181 1183.21 3181 1183.21C3210.14 1183.14 3234.57 1203.27 3242.26 1231C3244.47 1239 3244.09 1245.8 3244 1254C3243.89 1262.92 3240.95 1273.19 3236.69 1281C3223.32 1305.49 3199.84 1315.31 3173 1315C3156.32 1314.8 3137.93 1307.75 3126.09 1295.91C3097.85 1267.67 3101.83 1218.63 3134 1195.16C3143.31 1188.37 3152.79 1185.26 3164 1183.21ZM3269 1289C3269 1289 3281 1296.68 3281 1296.68C3294.43 1303.84 3313.21 1306.84 3328 1302.84C3341.91 1299.08 3354.45 1285.7 3345.77 1271C3341.37 1263.54 3332.77 1260.57 3325 1258C3306.82 1251.99 3277.54 1250.32 3269.48 1230C3267.67 1225.45 3267.95 1220.8 3268 1216C3268.41 1182.32 3313.67 1178.5 3338 1185.72C3346.12 1188.13 3347.72 1189.15 3355 1193C3355 1193 3352 1203 3352 1203C3342.01 1200.15 3341.53 1196.49 3323 1193.59C3306.71 1191.04 3282.38 1196.11 3280.34 1216C3278.95 1229.54 3292.09 1236.59 3303 1239.98C3323.89 1246.45 3360.66 1249.16 3361 1278C3361.05 1282.62 3361.13 1285.52 3359.64 1290C3350.97 1315.99 3315.45 1317.98 3293 1312.77C3286.19 1311.18 3277.92 1308.23 3272 1304.53C3269.67 1303.08 3266.45 1300.92 3265.99 1297.99C3265.63 1295.72 3268.04 1291.22 3269 1289ZM2632 1184C2632 1184 2738 1184 2738 1184C2738 1184 2738 1194 2738 1194C2738 1194 2706 1194 2706 1194C2703.14 1194 2695.6 1193.53 2693.43 1195.02C2690.56 1197 2691.01 1201.91 2691 1205C2691 1205 2691 1314 2691 1314C2691 1314 2679.6 1312.98 2679.6 1312.98C2679.6 1312.98 2678 1305 2678 1305C2678 1305 2678 1284 2678 1284C2678 1284 2678 1194 2678 1194C2678 1194 2632 1194 2632 1194C2632 1194 2632 1184 2632 1184ZM2757 1184C2757 1184 2770 1184 2770 1184C2770 1184 2770 1249 2770 1249C2770 1263.05 2769.06 1276.87 2777.79 1289C2790.2 1306.26 2820.87 1309.14 2837 1295.67C2847.14 1287.21 2850.98 1274.8 2851 1262C2851 1262 2851 1184 2851 1184C2851 1184 2864 1184 2864 1184C2864 1184 2864 1248 2864 1248C2864 1266.7 2864.04 1285.08 2850.7 1299.96C2832.86 1319.86 2791.12 1319.92 2772.01 1301.91C2761.33 1291.84 2757.02 1276.32 2757 1262C2757 1262 2757 1184 2757 1184ZM2907 1184C2907 1184 2966 1184 2966 1184C2986 1184.24 3006.15 1193.84 3018.08 1210C3035.98 1234.27 3033.68 1272.13 3012.91 1293.99C2993.46 1314.46 2968.8 1314 2943 1314C2943 1314 2907 1314 2907 1314C2907 1314 2907 1184 2907 1184ZM3062 1184C3062 1184 3075 1184 3075 1184C3075 1184 3075 1314 3075 1314C3075 1314 3062 1314 3062 1314C3062 1314 3062 1184 3062 1184ZM354.24 1188.83C354.24 1188.83 386 1190 386 1190C386 1190 401 1191 401 1191C401 1191 423 1192 423 1192C423 1192 436 1193 436 1193C439.38 1193.04 450.14 1191.88 450.14 1197.08C450.14 1199.52 447.62 1201.6 445.96 1203.08C445.96 1203.08 434 1213.08 434 1213.08C434 1213.08 393 1247.41 393 1247.41C389.91 1249.98 379.15 1259.65 376.02 1260.27C370.66 1261.33 368.59 1249.9 367.34 1246C367.34 1246 354.24 1204 354.24 1204C352.7 1198.99 348.72 1192.36 354.24 1188.83ZM633.6 1192.08C639.25 1190.73 648.12 1201.12 652 1205C652 1205 699 1251 699 1251C699 1251 716 1267 716 1267C716 1267 741 1291.83 741 1291.83C745.82 1296.19 762.61 1311.27 764.98 1316C766.38 1318.8 766.84 1329.33 767.28 1333C767.28 1333 772.17 1380 772.17 1380C772.17 1380 782.17 1475 782.17 1475C782.17 1475 786.12 1513 786.12 1513C786.27 1516.27 785.11 1522.15 780.63 1518.38C778.99 1517.01 776.3 1511.15 775.31 1509C775.31 1509 752.42 1459 752.42 1459C752.42 1459 719.31 1387 719.31 1387C719.31 1387 666.69 1272 666.69 1272C666.69 1272 639.58 1213 639.58 1213C637.39 1207.99 630.27 1196.8 633.6 1192.08ZM2920 1303C2920 1303 2962 1303 2962 1303C2971.65 1302.98 2981.43 1301.09 2990 1296.51C3012.09 1284.72 3017.27 1267.26 3017 1244C3016.81 1228.46 3008.57 1213.79 2996 1204.79C2979.19 1192.75 2959.54 1194 2940 1194C2936.42 1194 2923.03 1193.07 2921.02 1195.6C2919.77 1197.19 2920 1201.01 2920 1203C2920 1203 2920 1303 2920 1303ZM3166 1194.29C3157.7 1195.67 3149.98 1198.41 3143 1203.22C3115.86 1221.91 3112.21 1262.96 3134.17 1286.99C3144.12 1297.87 3159.38 1303.83 3174 1304C3190.05 1304.18 3205.27 1299.67 3216.71 1287.83C3238.04 1265.76 3236.42 1224.75 3212 1205.52C3198.23 1194.67 3182.95 1192.68 3166 1194.29ZM466 1200.74C471.57 1199.39 481.88 1200 488 1200C488 1200 518 1200 518 1200C518 1200 535 1201.1 535 1201.1C535 1201.1 597 1201.1 597 1201.1C597 1201.1 611.94 1201.1 611.94 1201.1C614 1201.88 615.91 1203.39 614.83 1205.74C613.39 1208.89 603.35 1210.99 600 1212.02C600 1212.02 557 1224.98 557 1224.98C557 1224.98 425 1264.42 425 1264.42C425 1264.42 392 1274.34 392 1274.34C389.2 1275.2 380.92 1277.17 383.17 1270.98C384.4 1267.58 393.83 1260.4 397 1257.75C397 1257.75 431 1229.25 431 1229.25C437.89 1223.48 459.88 1203.91 466 1200.74ZM623.3 1221.13C628.54 1220.14 629.75 1225 631.75 1229C631.75 1229 645.25 1256 645.25 1256C645.25 1256 692.75 1352 692.75 1352C692.75 1352 704.65 1376 704.65 1376C705.8 1378.99 705.87 1384.7 701.07 1382.83C698.76 1381.93 694.34 1376.1 692.59 1374C692.59 1374 674.25 1352 674.25 1352C674.25 1352 641.59 1313 641.59 1313C638.48 1309.27 628.11 1297.61 626.74 1294C624.92 1289.25 624.35 1267.43 623.91 1261C623.91 1261 621.96 1232 621.96 1232C621.77 1227.51 619.89 1224.63 623.3 1221.13ZM776.31 1335.08C781.4 1333.99 783.04 1337.53 786.16 1341C786.16 1341 805 1362 805 1362C805 1362 845.17 1407 845.17 1407C845.17 1407 885.58 1452 885.58 1452C885.58 1452 908.83 1478 908.83 1478C910.63 1480.03 916.76 1486.3 912.55 1488.72C909.34 1490.57 902.62 1485.11 900 1483.28C900 1483.28 867 1460.66 867 1460.66C867 1460.66 807 1419.34 807 1419.34C807 1419.34 790 1407.67 790 1407.67C787.49 1405.98 782.56 1403.09 780.98 1400.68C778.98 1397.61 779.17 1392.54 778.91 1389C778.91 1389 776.91 1367 776.91 1367C776.91 1367 774.83 1345 774.83 1345C774.41 1340.61 772.96 1338.56 776.31 1335.08Z" fill-rule="nonzero" transform="matrix(1, 0, 0, 1, 0, 0)" fill="#ffffff" fill-opacity="1" stroke="#ffffff" stroke-width="2" stroke-linecap="butt" stroke-linejoin="miter" opacity="1" id="path2" />
</svg>