<!-- Created with PixiEditor (https://pixieditor.net) -->
<svg version="1.1" viewBox="0 0 3000 3000" xmlns="http://www.w3.org/2000/svg">
  <path d="M2022 123.46C2033.54 121.92 2033.18 128.93 2029.69 132.61C2029.69 132.61 2004 148 2004 148C2004 148 1947 180.72 1947 180.72C1947 180.72 1689 329.28 1689 329.28C1689 329.28 1608 376 1608 376C1608 376 1588 387.42 1588 387.42C1585.17 389.02 1581.47 391.36 1578.06 390.64C1571.52 389.27 1574.91 381.58 1577.07 378C1577.07 378 1598.81 344 1598.81 344C1598.81 344 1657.58 252 1657.58 252C1657.58 252 1677.95 220 1677.95 220C1677.95 220 1689.53 202.28 1689.53 202.28C1693.3 198.41 1709.09 196.08 1715 194.63C1715 194.63 1780 179.58 1780 179.58C1780 179.58 1971 135.35 1971 135.35C1971 135.35 2022 123.46 2022 123.46ZM830.06 160.84C831.21 160.77 831.08 160.35 833 160.84C836.65 161.73 849.39 172.76 853 175.75C853 175.75 906 218.6 906 218.6C906 218.6 1012 304.39 1012 304.39C1012 304.39 1096 372.25 1096 372.25C1096 372.25 1145 411.92 1145 411.92C1148.86 415.13 1161.14 423.81 1162.34 428C1163.58 432.29 1159.94 434.87 1156 434.64C1156 434.64 1129 428.13 1129 428.13C1129 428.13 1020 401.13 1020 401.13C1020 401.13 933 379.37 933 379.37C933 379.37 909 373.37 909 373.37C905.84 372.58 900.78 371.71 898.42 369.49C896.09 367.31 895.04 362.98 893.95 360C893.95 360 886.81 340 886.81 340C886.81 340 858.58 260 858.58 260C858.58 260 832.34 186 832.34 186C830.8 181.55 825.13 167.95 826.61 164.11C827.46 161.92 828.27 161.85 830.06 160.84ZM2587 332.83C2592.04 331.92 2596.12 334.48 2594.13 340C2592.98 343.16 2583.72 353.63 2581 357C2581 357 2524.39 426 2524.39 426C2524.39 426 2334 658 2334 658C2334 658 2281.42 722 2281.42 722C2281.42 722 2267.58 739 2267.58 739C2265.73 741.24 2262.67 745.26 2259.91 746.22C2256.39 747.45 2252.02 744.81 2249 743.14C2249 743.14 2225 730 2225 730C2225 730 2130 678.31 2130 678.31C2130 678.31 2102.02 663.12 2102.02 663.12C2098.58 661.05 2094.7 657.74 2097.19 653.32C2098.61 650.81 2105.36 646.76 2108 645C2108 645 2133 628.67 2133 628.67C2133 628.67 2227 567.33 2227 567.33C2227 567.33 2317 508.66 2317 508.66C2317 508.66 2466 411.31 2466 411.31C2466 411.31 2543 361 2543 361C2543 361 2587 332.83 2587 332.83ZM1538 401.3C1539.65 401.23 1541.32 400.93 1542.98 401.3C1550.21 402.14 1548.04 408.84 1543.94 412.54C1543.94 412.54 1514 436.2 1514 436.2C1514 436.2 1424 507.4 1424 507.4C1424 507.4 1398 528 1398 528C1394.78 530.55 1387.65 536.63 1384 537.57C1379.85 538.63 1371.3 536.2 1367 535.13C1367 535.13 1334 527.13 1334 527.13C1334 527.13 1215 498.87 1215 498.87C1215 498.87 1178 490 1178 490C1174.12 489.17 1167.01 488.32 1165.66 483.94C1163.22 476.06 1179.11 475.01 1184 474C1184 474 1251 460.2 1251 460.2C1251 460.2 1462 417 1462 417C1462 417 1538 401.3 1538 401.3ZM1571 426.73C1577.31 425.4 1580.51 428 1586 430.75C1586 430.75 1609 442.75 1609 442.75C1609 442.75 1710 494.74 1710 494.74C1710 494.74 1967 626.74 1967 626.74C1967 626.74 2080 684.74 2080 684.74C2080 684.74 2107 698.31 2107 698.31C2107 698.31 2181 736.26 2181 736.26C2181 736.26 2230 761.75 2230 761.75C2230 761.75 2259.94 777.1 2259.94 777.1C2263.4 779.62 2266.07 785.2 2260.85 787.4C2257.08 788.99 2246.25 785.24 2242 784.12C2242 784.12 2193 770.71 2193 770.71C2193 770.71 2120 750.85 2120 750.85C2120 750.85 2008 720.15 2008 720.15C2008 720.15 1677 629.85 1677 629.85C1677 629.85 1550 595.12 1550 595.12C1550 595.12 1439 564.71 1439 564.71C1439 564.71 1413 557.63 1413 557.63C1409.63 556.74 1404.98 555.89 1403.92 551.95C1402.64 547.12 1408.76 543.61 1412 541.29C1412 541.29 1441 520.15 1441 520.15C1441 520.15 1528 457.14 1528 457.14C1528 457.14 1571 426.73 1571 426.73ZM1137.04 504.07C1147.88 501.51 1144.02 512.64 1141.72 518C1141.72 518 1120.2 571 1120.2 571C1120.2 571 1034.4 782 1034.4 782C1034.4 782 1002.6 860 1002.6 860C1002.6 860 992.4 885 992.4 885C991.08 888.31 988.16 896.35 986.3 898.83C986.3 898.83 963 919 963 919C963 919 907 966.08 907 966.08C907 966.08 743 1104.08 743 1104.08C743 1104.08 655 1178.08 655 1178.08C655 1178.08 631 1198.25 631 1198.25C628.46 1200.37 621.78 1206.39 619 1207.21C614.19 1208.61 609.93 1203.67 613.88 1197C613.88 1197 638.63 1164 638.63 1164C638.63 1164 734.88 1036 734.88 1036C734.88 1036 855.37 876 855.37 876C855.37 876 1013.63 666 1013.63 666C1013.63 666 1097.13 555 1097.13 555C1097.13 555 1122.13 522 1122.13 522C1126.21 516.56 1131.68 507.81 1137.04 504.07ZM1171.21 526.74C1177.71 525.03 1188.91 527.35 1196 527.92C1196 527.92 1253 533.72 1253 533.72C1253 533.72 1271.96 535.8 1271.96 535.8C1274.79 536.75 1277.07 538.69 1276.58 541.98C1276.05 545.51 1271.73 547.84 1269 549.67C1269 549.67 1246 564.67 1246 564.67C1246 564.67 1175 610.66 1175 610.66C1175 610.66 1153 624.81 1153 624.81C1150.36 626.45 1144.72 630.43 1142 631.04C1138.26 631.88 1135.53 629.78 1135.24 625.98C1134.99 622.77 1138.79 612.58 1140 609C1140 609 1160.67 550 1160.67 550C1162.69 544 1166.28 530.08 1171.21 526.74ZM2432.04 889.84C2442.8 889.15 2437.8 901.23 2436.02 907C2436.02 907 2433.33 916 2433.33 916C2433.33 916 2420.28 959 2420.28 959C2420.28 959 2407.14 1002 2407.14 1002C2407.14 1002 2389.72 1059 2389.72 1059C2389.72 1059 2343.28 1212 2343.28 1212C2343.28 1212 2319.42 1290 2319.42 1290C2319.42 1290 2297.58 1362 2297.58 1362C2296.47 1365.79 2291.82 1381.55 2290.16 1383.87C2288.96 1385.55 2287.84 1386.32 2285.98 1387.15C2285.98 1387.15 2255 1394.87 2255 1394.87C2255 1394.87 2185 1411.65 2185 1411.65C2185 1411.65 2113 1429.12 2113 1429.12C2113 1429.12 1998 1456.63 1998 1456.63C1998 1456.63 1931 1472.87 1931 1472.87C1925.97 1474.09 1912.16 1479.07 1909.03 1473.77C1906.6 1469.68 1910.37 1465.87 1912.85 1463C1912.85 1463 1934.42 1439 1934.42 1439C1934.42 1439 2026.58 1337 2026.58 1337C2026.58 1337 2052.83 1308 2052.83 1308C2052.83 1308 2127.83 1225 2127.83 1225C2127.83 1225 2304.83 1029 2304.83 1029C2304.83 1029 2389.72 935 2389.72 935C2389.72 935 2416.72 905 2416.72 905C2420.65 900.53 2426.97 892.45 2432.04 889.84ZM1268 988.47C1277.94 987.35 1278.59 993.92 1274.57 998.34C1274.57 998.34 1261 1009.21 1261 1009.21C1261 1009.21 1234 1030.13 1234 1030.13C1234 1030.13 1165 1083.79 1165 1083.79C1165 1083.79 1133 1108.65 1133 1108.65C1129.74 1111.17 1121.48 1118.19 1118 1119.19C1114.91 1120.07 1107.41 1118.08 1104 1117.4C1104 1117.4 1073 1111.2 1073 1111.2C1073 1111.2 1005 1097.4 1005 1097.4C1005 1097.4 959 1088.12 959 1088.12C959 1088.12 920 1080.18 920 1080.18C915.66 1079.13 909.61 1075.47 913.74 1070.43C915.56 1068.22 919.34 1067.74 922 1067.12C922 1067.12 940 1063 940 1063C940 1063 1008 1047.58 1008 1047.58C1008 1047.58 1194 1005.35 1194 1005.35C1194 1005.35 1268 988.47 1268 988.47ZM1316 1008.68C1322.94 1008.66 1325.35 1015.81 1328.69 1021C1328.69 1021 1354.19 1061 1354.19 1061C1354.19 1061 1403.31 1138 1403.31 1138C1403.31 1138 1459.31 1226 1459.31 1226C1459.31 1226 1489.31 1273 1489.31 1273C1491.9 1277.02 1499.81 1287.31 1491.89 1290.22C1488.5 1291.47 1483.16 1288.64 1480 1287.28C1480 1287.28 1452 1275.72 1452 1275.72C1452 1275.72 1343 1230.42 1343 1230.42C1343 1230.42 1250 1191.99 1250 1191.99C1250 1191.99 1201 1171.6 1201 1171.6C1201 1171.6 1168 1157.85 1168 1157.85C1163.72 1156 1158 1154.03 1159.33 1148.09C1160.13 1144.52 1167.16 1139.04 1170 1136.58C1170 1136.58 1197 1112.58 1197 1112.58C1197 1112.58 1280 1038.84 1280 1038.84C1280 1038.84 1303 1018.28 1303 1018.28C1307.05 1014.73 1310.85 1010.47 1316 1008.68ZM862 1095.74C872.99 1095.5 867.36 1105.15 863.85 1110C863.85 1110 832.58 1153 832.58 1153C832.58 1153 778.85 1227 778.85 1227C775.61 1231.44 764.63 1247.8 760.91 1249.83C758.26 1251.26 753.99 1251.03 751 1251C751 1251 741 1250.04 741 1250.04C741 1250.04 733 1250.04 733 1250.04C733 1250.04 714 1249 714 1249C714 1249 700 1248 700 1248C700 1248 678 1247 678 1247C678 1247 665 1246 665 1246C665 1246 645 1245 645 1245C645 1245 628 1244 628 1244C628 1244 624 1244 624 1244C619.48 1243.98 610.55 1244.27 610.25 1238C610.18 1236.37 610.69 1234.87 611.74 1233.63C613.59 1231.45 630.26 1222.75 634 1220.7C634 1220.7 684 1193.14 684 1193.14C684 1193.14 800 1129.14 800 1129.14C800 1129.14 838 1108.14 838 1108.14C844.45 1104.54 855.43 1097.88 862 1095.74ZM1165 1178.55C1172.42 1178.93 1173.64 1184.39 1168.77 1189.41C1168.77 1189.41 1139 1214.25 1139 1214.25C1139 1214.25 1039 1297.25 1039 1297.25C1039 1297.25 1012 1319.59 1012 1319.59C1008.86 1322.2 1002.93 1327.8 999 1328.4C996.25 1328.83 987.2 1326.17 984 1325.37C984 1325.37 949 1316.37 949 1316.37C949 1316.37 829 1285.63 829 1285.63C829 1285.63 791 1276 791 1276C787.32 1274.95 780.11 1274.02 778.84 1269.89C776.4 1261.89 792.98 1260.49 798 1259.35C798 1259.35 868 1243.88 868 1243.88C868 1243.88 1060 1201.58 1060 1201.58C1060 1201.58 1128 1186.58 1128 1186.58C1128 1186.58 1165 1178.55 1165 1178.55ZM583 1258.76C593.81 1258.44 587.8 1269.8 585.24 1275C585.24 1275 561.58 1325 561.58 1325C561.58 1325 546.31 1357 546.31 1357C546.31 1357 512.78 1428 512.78 1428C512.78 1428 478.78 1500 478.78 1500C478.78 1500 464.25 1531 464.25 1531C464.25 1531 436.78 1589 436.78 1589C434.64 1593.53 430.71 1607.1 424.04 1605.16C418.62 1603.58 414.09 1588.22 412 1583C412 1583 385.8 1517 385.8 1517C385.8 1517 362.6 1459 362.6 1459C360.62 1454.05 354.21 1440.78 355.45 1436.09C356.57 1431.82 366.3 1425.3 370 1422.42C370 1422.42 410 1391.42 410 1391.42C410 1391.42 526 1301.58 526 1301.58C526 1301.58 562 1273.58 562 1273.58C567.34 1269.42 577.13 1260.95 583 1258.76ZM661 1258.44C666.12 1258.1 672.84 1260.75 669.22 1266.96C667.45 1270 653.67 1280.09 650 1282.87C650 1282.87 606 1316.21 606 1316.21C601.72 1319.57 588.83 1330.59 584.02 1330.75C573.81 1331.09 580.68 1317.59 582.42 1313C582.42 1313 595.32 1280 595.32 1280C596.84 1275.87 600.51 1265.13 603.39 1262.43C606.37 1259.64 610.22 1260.01 614 1259.96C614 1259.96 628 1259.96 628 1259.96C628 1259.96 639 1259 639 1259C639 1259 661 1258.44 661 1258.44ZM2270 1423.57C2277.6 1423.89 2278.74 1430.3 2272.89 1434.56C2272.89 1434.56 2234 1458 2234 1458C2234 1458 2091 1543.8 2091 1543.8C2091 1543.8 1549 1869 1549 1869C1549 1869 1389 1965.2 1389 1965.2C1389 1965.2 1349 1989.2 1349 1989.2C1344.97 1991.62 1336.69 1997.6 1332.04 1996.64C1330.42 1996.31 1328.99 1995.4 1328.28 1993.85C1326.02 1988.93 1334.79 1982.36 1338 1979.58C1338 1979.58 1388 1934.17 1388 1934.17C1388 1934.17 1588 1753.17 1588 1753.17C1588 1753.17 1761 1596.83 1761 1596.83C1761 1596.83 1815 1547.91 1815 1547.91C1820.32 1542.98 1842.47 1522.37 1847 1519.81C1850.67 1517.75 1856.75 1516.9 1861 1515.87C1861 1515.87 1890 1509.35 1890 1509.35C1890 1509.35 1982 1488.58 1982 1488.58C1982 1488.58 2190 1441.58 2190 1441.58C2190 1441.58 2243 1429.58 2243 1429.58C2243 1429.58 2270 1423.57 2270 1423.57ZM2298 1447.93C2306.19 1445.59 2313.56 1452.71 2320 1457C2320 1457 2370 1489.66 2370 1489.66C2370 1489.66 2491 1568.34 2491 1568.34C2491 1568.34 2574 1622.58 2574 1622.58C2574 1622.58 2633 1661 2633 1661C2636.89 1663.6 2653.31 1672.12 2643.77 1677.94C2641.04 1679.46 2637.02 1678.39 2634 1677.94C2634 1677.94 2611 1675.28 2611 1675.28C2611 1675.28 2527 1665.15 2527 1665.15C2527 1665.15 2306 1638.72 2306 1638.72C2306 1638.72 2249 1631.85 2249 1631.85C2249 1631.85 2200 1625.93 2200 1625.93C2200 1625.93 2178 1623.16 2178 1623.16C2178 1623.16 2100 1613.85 2100 1613.85C2100 1613.85 2077.02 1610.94 2077.02 1610.94C2073.6 1610.16 2070.73 1607.96 2071.84 1604.04C2073.06 1599.78 2083.18 1593.88 2087 1591.33C2087 1591.33 2130 1562 2130 1562C2130 1562 2247 1482.33 2247 1482.33C2247 1482.33 2298 1447.93 2298 1447.93ZM1084 1624.51C1087.95 1624.38 1092.63 1625.89 1091.16 1630.96C1090.05 1634.75 1084.25 1637.15 1081 1639C1081 1639 1025 1670.14 1025 1670.14C1025 1670.14 819 1784.3 819 1784.3C819 1784.3 758 1818.14 758 1818.14C758 1818.14 743 1826.42 743 1826.42C740.4 1827.88 737.17 1830.05 734.04 1829.47C728.91 1828.51 728.96 1823.77 730.97 1820C730.97 1820 748.15 1796 748.15 1796C748.15 1796 794.29 1733 794.29 1733C794.29 1733 821.46 1696.28 821.46 1696.28C825.62 1692.26 838.1 1690.22 844 1688.58C844 1688.58 896 1674.63 896 1674.63C896 1674.63 961 1657.15 961 1657.15C961 1657.15 1016 1642.58 1016 1642.58C1016 1642.58 1056 1631.85 1056 1631.85C1056 1631.85 1084 1624.51 1084 1624.51ZM445.04 1633.02C451.61 1632.39 479.53 1637.84 488 1639.25C488 1639.25 573 1653.08 573 1653.08C573 1653.08 600 1657.58 600 1657.58C606.63 1658.6 610.61 1657.92 614.76 1664.02C614.76 1664.02 637.86 1706 637.86 1706C637.86 1706 691.7 1804 691.7 1804C691.7 1804 710.24 1838 710.24 1838C712.16 1841.89 714.71 1848.6 707.98 1849.58C703.49 1850.23 695.61 1842.66 692 1839.88C692 1839.88 653 1809.2 653 1809.2C653 1809.2 496 1685.2 496 1685.2C496 1685.2 451 1649.6 451 1649.6C446.19 1645.75 434.64 1638.02 445.04 1633.02ZM631.29 1654.02C636.29 1652.15 640.95 1653.8 646 1654.8C646 1654.8 670 1659.4 670 1659.4C670 1659.4 763 1677.2 763 1677.2C763 1677.2 792 1682.8 792 1682.8C795.31 1683.46 800.17 1683.89 801.96 1687.14C803.89 1690.64 801.33 1694.22 799.36 1697C799.36 1697 782.87 1719 782.87 1719C782.87 1719 741.37 1774 741.37 1774C738.83 1777.39 729.81 1790.1 726.7 1791.43C725.04 1792.14 721.85 1792 720 1792C720 1792 708 1792 708 1792C706.05 1791.96 703.95 1792 702.21 1790.98C699.85 1789.58 698.45 1786.34 697.14 1784C697.14 1784 687.7 1767 687.7 1767C687.7 1767 643.42 1687 643.42 1687C643.42 1687 631.29 1665 631.29 1665C629.24 1660.81 627.87 1657.73 631.29 1654.02ZM606.06 1875.84C613.94 1875.33 615 1885.01 617 1891C617 1891 634.67 1944 634.67 1944C634.67 1944 710 2170 710 2170C710 2170 730.8 2232 730.8 2232C732.24 2236.72 738.61 2250.12 730.8 2252.29C728.41 2253.01 725.99 2251.43 724 2250.06C724 2250.06 710 2239 710 2239C710 2239 655 2194.8 655 2194.8C655 2194.8 592 2144.2 592 2144.2C592 2144.2 575 2130.6 575 2130.6C572.24 2128.39 567.6 2125.07 566.02 2121.99C563.88 2117.8 565.82 2109.58 566.59 2105C566.59 2105 572.25 2069 572.25 2069C572.25 2069 593.92 1931 593.92 1931C593.92 1931 600.25 1891 600.25 1891C601.18 1885.28 600.54 1878.93 606.06 1875.84ZM2035 1959.43C2044.84 1958.57 2045.68 1966.07 2040.77 1969.65C2040.77 1969.65 2020 1980.25 2020 1980.25C2020 1980.25 1978 2000.74 1978 2000.74C1978 2000.74 1871 2052.74 1871 2052.74C1871 2052.74 1816 2079.25 1816 2079.25C1816 2079.25 1755 2108.78 1755 2108.78C1755 2108.78 1727 2122.37 1727 2122.37C1721.01 2124.07 1711.32 2121.15 1705 2120.08C1705 2120.08 1653 2110.4 1653 2110.4C1653 2110.4 1483 2078.61 1483 2078.61C1483 2078.61 1356 2054.92 1356 2054.92C1356 2054.92 1326 2049.39 1326 2049.39C1322.39 2048.69 1316.88 2047.6 1316.54 2043C1316.17 2037.97 1321.37 2037.31 1325 2036.85C1325 2036.85 1355 2033.42 1355 2033.42C1355 2033.42 1380 2030.84 1380 2030.84C1380 2030.84 1449 2023.16 1449 2023.16C1449 2023.16 1484 2019.42 1484 2019.42C1484 2019.42 1518 2015.83 1518 2015.83C1518 2015.83 1564 2010.83 1564 2010.83C1564 2010.83 1665 1999.83 1665 1999.83C1665 1999.83 1899 1974.17 1899 1974.17C1899 1974.17 1991 1964.16 1991 1964.16C1991 1964.16 2035 1959.43 2035 1959.43ZM2041 1990.69C2043.26 1990.24 2044.68 1989.86 2046.96 1990.69C2049.92 1991.88 2060.05 2003.05 2063 2006C2063 2006 2075.04 2019 2075.04 2019C2075.04 2019 2113.09 2059 2113.09 2059C2113.09 2059 2145.96 2093 2145.96 2093C2145.96 2093 2224.96 2176 2224.96 2176C2224.96 2176 2253.04 2206 2253.04 2206C2253.04 2206 2285.91 2240 2285.91 2240C2285.91 2240 2318 2274 2318 2274C2318 2274 2333.04 2290 2333.04 2290C2333.04 2290 2363.96 2322 2363.96 2322C2363.96 2322 2375 2334 2375 2334C2377.84 2336.85 2385.31 2343.8 2386.81 2347C2388.3 2350.17 2387.45 2353.96 2383.89 2355.17C2381.14 2356.1 2376.7 2354.23 2374 2353.33C2374 2353.33 2350 2345 2350 2345C2350 2345 2257 2313 2257 2313C2257 2313 2130 2269.34 2130 2269.34C2130 2269.34 1976 2216.66 1976 2216.66C1976 2216.66 1894 2188.33 1894 2188.33C1894 2188.33 1785 2151 1785 2151C1785 2151 1759 2141.98 1759 2141.98C1755.36 2140.6 1752.29 2138.59 1753.33 2134.1C1754.35 2129.69 1765.95 2125.27 1770 2123.25C1770 2123.25 1822 2097.75 1822 2097.75C1822 2097.75 1961 2029.75 1961 2029.75C1961 2029.75 2014 2003.74 2014 2003.74C2014 2003.74 2041 1990.69 2041 1990.69ZM708.04 2078.87C711.88 2077.88 720.1 2078.98 725 2078.87C725 2078.87 736 2079.96 736 2079.96C736 2079.96 744 2079.96 744 2079.96C744 2079.96 762 2081 762 2081C762 2081 776 2082 776 2082C776 2082 798 2083 798 2083C798 2083 813 2084 813 2084C813 2084 829 2085 829 2085C829 2085 852 2086 852 2086C852 2086 866 2087 866 2087C866 2087 883 2088 883 2088C883 2088 888 2088 888 2088C893.68 2088.07 903.6 2089.68 898.26 2097.91C896.62 2100.44 889.65 2105.86 887 2108.08C887 2108.08 865 2126.42 865 2126.42C865 2126.42 789 2190.08 789 2190.08C789 2190.08 763 2211.92 763 2211.92C760.25 2214.21 754.29 2219.76 751 2220.38C747.02 2221.14 744.99 2218.27 743.76 2214.98C743.76 2214.98 736.33 2191 736.33 2191C736.33 2191 710 2107 710 2107C710 2107 705.33 2092 705.33 2092C704.48 2089.36 702.95 2085.79 703.83 2083.04C704.64 2080.52 705.97 2079.95 708.04 2078.87ZM1269.04 2082.96C1274.14 2083.15 1276.29 2086.37 1280 2089.58C1280 2089.58 1304 2113 1304 2113C1304 2113 1319 2127.04 1319 2127.04C1319 2127.04 1343 2150.96 1343 2150.96C1343 2150.96 1352 2159.04 1352 2159.04C1352 2159.04 1377 2183.96 1377 2183.96C1377 2183.96 1392 2198 1392 2198C1392 2198 1454 2258.04 1454 2258.04C1454 2258.04 1481 2284.83 1481 2284.83C1481 2284.83 1513 2315.96 1513 2315.96C1517.28 2320.05 1526.34 2327.04 1528.83 2332C1530.25 2334.84 1530.81 2343.52 1531.08 2347C1531.08 2347 1533.17 2367 1533.17 2367C1533.17 2367 1542.17 2453 1542.17 2453C1542.17 2453 1563.17 2653 1563.17 2653C1563.17 2653 1571.38 2731 1571.38 2731C1571.99 2739.6 1565.06 2740.19 1561.7 2736.57C1561.7 2736.57 1549.86 2712 1549.86 2712C1549.86 2712 1500.31 2604 1500.31 2604C1500.31 2604 1397.69 2380 1397.69 2380C1397.69 2380 1352.69 2282 1352.69 2282C1352.69 2282 1332 2237 1332 2237C1332 2237 1310.31 2190 1310.31 2190C1310.31 2190 1278.76 2121 1278.76 2121C1278.76 2121 1266.78 2095 1266.78 2095C1264.36 2089.76 1262.92 2085.96 1269.04 2082.96ZM932 2102.85C937.13 2101.45 942.7 2102 948 2102C948 2102 976 2102 976 2102C976 2102 1057 2102 1057 2102C1057 2102 1072 2103 1072 2103C1072 2103 1217 2103 1217 2103C1221.38 2103.01 1229.71 2102.61 1229.71 2109C1229.71 2110.74 1228.99 2112.15 1227.69 2113.28C1225.95 2114.77 1219.48 2116.53 1217 2117.28C1217 2117.28 1195 2123.86 1195 2123.86C1195 2123.86 1123 2145.42 1123 2145.42C1123 2145.42 875 2219.72 875 2219.72C875 2219.72 793 2244.34 793 2244.34C793 2244.34 774 2249.94 774 2249.94C770.79 2250.59 767.83 2250.21 766.27 2246.89C764.7 2243.56 766.85 2240.95 769.13 2238.75C769.13 2238.75 787 2223.73 787 2223.73C787 2223.73 861 2161.58 861 2161.58C861 2161.58 907 2122.92 907 2122.92C913.19 2117.75 925.68 2106.22 932 2102.85ZM1246.43 2143.02C1254.61 2139.91 1256.86 2149.21 1259.75 2155C1259.75 2155 1282.25 2200 1282.25 2200C1282.25 2200 1378.75 2394 1378.75 2394C1378.75 2394 1404.75 2446 1404.75 2446C1406.84 2450.18 1414.08 2461.16 1408.57 2464.82C1402.37 2468.94 1393.5 2455.09 1390.08 2451C1390.08 2451 1343.92 2396 1343.92 2396C1343.92 2396 1281.25 2321 1281.25 2321C1281.25 2321 1262.75 2299 1262.75 2299C1260.21 2295.95 1255.21 2290.5 1253.89 2287C1253.89 2287 1251.91 2262 1251.91 2262C1251.91 2262 1247.96 2204 1247.96 2204C1247.96 2204 1247.09 2196 1247.09 2196C1247.09 2196 1244.96 2159 1244.96 2159C1244.72 2153.37 1242.21 2147.65 1246.43 2143.02ZM1553.23 2369.76C1560.88 2368.38 1567.27 2378.95 1571.98 2384C1571.98 2384 1619.28 2437 1619.28 2437C1619.28 2437 1700.83 2528 1700.83 2528C1700.83 2528 1765.08 2600 1765.08 2600C1765.08 2600 1808.07 2648 1808.07 2648C1808.07 2648 1821.57 2663 1821.57 2663C1823.22 2664.93 1826.52 2668.63 1827.16 2671C1828.23 2675 1825.02 2678.18 1821 2677.53C1818.22 2677.07 1814.32 2674.21 1812 2672.58C1812 2672.58 1760 2636.98 1760 2636.98C1760 2636.98 1617 2538.72 1617 2538.72C1617 2538.72 1579 2512.67 1579 2512.67C1575.16 2510.08 1564.21 2503.33 1562.17 2499.82C1560.11 2496.27 1560.23 2489.09 1559.83 2485C1559.83 2485 1556.91 2453 1556.91 2453C1556.91 2453 1551.09 2391 1551.09 2391C1550.64 2384.91 1547.67 2373.7 1553.23 2369.76Z" fill-rule="nonzero" transform="matrix(1, 0, 0, 1, 0, 0)" fill="#ffffff" fill-opacity="1" stroke="#ffffff" stroke-width="1" stroke-linecap="butt" stroke-linejoin="miter" opacity="1" id="path1" />
</svg>