<!-- Created with PixiEditor (https://pixieditor.net) -->
<svg version="1.1" viewBox="0 0 1920 400" xmlns="http://www.w3.org/2000/svg">
  <path d="M586 171C587.52 159.76 591.81 148.71 597.6 139C623.83 95.01 683.12 81.37 728 103.81C761.22 120.42 779.42 154.53 779 191C778.55 229.17 755.65 263.67 720 277.8C710.48 281.57 700.26 283.98 690 284C690 284 285 284 285 284C285 284 285 94 285 94C285 94 301 94 301 94C301 94 301 268 301 268C301 268 691 268 691 268C729.67 267.94 762.56 229.54 763 192C763.16 177.87 761.12 165.76 754.73 153C727.28 98.22 648.01 93.66 613.75 144C608.19 152.15 604.19 161.38 602 171C602 171 586 171 586 171ZM433 94C433 94 559 94 559 94C559 94 559 110 559 110C559 110 433 110 433 110C433 110 433 94 433 94ZM715 94C715 94 1403 94 1403 94C1425.79 94.04 1449.97 101.54 1464.48 120C1481.3 141.38 1479.55 178.34 1462.54 199C1455.38 207.69 1446.25 212.84 1436 217C1436 217 1465.29 258 1465.29 258C1465.29 258 1484 282 1484 282C1484 282 1503.69 238 1503.69 238C1503.69 238 1545.78 147 1545.78 147C1545.78 147 1559.26 118 1559.26 118C1559.26 118 1570 94 1570 94C1570 94 1583 94 1583 94C1583 94 1591.69 113 1591.69 113C1591.69 113 1610.69 154 1610.69 154C1610.69 154 1652.31 244 1652.31 244C1652.31 244 1671 284 1671 284C1671 284 1659 284 1659 284C1651.4 283.86 1652.19 282.09 1647.76 273C1647.76 273 1633.78 243 1633.78 243C1633.78 243 1595.31 160 1595.31 160C1595.31 160 1576 119 1576 119C1576 119 1557.31 161 1557.31 161C1557.31 161 1535.69 208 1535.69 208C1535.69 208 1518 246 1518 246C1518 246 1506 272 1506 272C1503 278.95 1502.32 283.84 1494 284C1494 284 1472 284 1472 284C1470.02 284 1466.89 284.12 1465.09 283.4C1461.04 281.79 1453.12 269.08 1450.12 265C1450.12 265 1429.15 236 1429.15 236C1427.01 233.07 1421.54 224.54 1418.82 223.01C1416.28 221.62 1407.67 222.99 1404 223.01C1404 223.01 1350 223.01 1350 223.01C1350 223.01 1350 284 1350 284C1350 284 1334 284 1334 284C1334 284 1334 207 1334 207C1334 207 1403 207 1403 207C1416.42 206.98 1432.26 203.93 1443 195.48C1447.65 191.83 1451.87 187.23 1454.68 182C1463.75 165.11 1461.67 139.03 1447.83 125.17C1437.28 114.61 1420.59 110.02 1406 110C1406 110 864 110 864 110C864 110 864 284 864 284C864 284 848 284 848 284C848 284 848 110 848 110C848 110 751 110 751 110C738.45 109.98 738.67 105.94 728 100.32C723.7 98.06 718.95 96.86 715 94ZM433 155C433 155 559 155 559 155C559 155 559 171 559 171C559 171 433 171 433 171C433 171 433 155 433 155ZM954 155C954 155 970 155 970 155C970 155 970 207 970 207C970 207 1090 207 1090 207C1090 207 1090 155 1090 155C1090 155 1106 155 1106 155C1106 155 1106 284 1106 284C1106 284 1090 284 1090 284C1090 284 1090 223 1090 223C1090 223 970 223 970 223C970 223 970 284 970 284C970 284 954 284 954 284C954 284 954 155 954 155ZM1163 207C1163 207 1293 207 1293 207C1293 207 1293 223 1293 223C1293 223 1163 223 1163 223C1163 223 1163 207 1163 207ZM1163 268C1163 268 1293 268 1293 268C1293 268 1293 284 1293 284C1293 284 1163 284 1163 284C1163 284 1163 268 1163 268Z" fill-rule="nonzero" transform="matrix(1, 0, 0, 1, 0, 0)" fill="#ffffff" fill-opacity="1" stroke="#ffffff" stroke-width="1" stroke-linecap="butt" stroke-linejoin="miter" opacity="1" id="Selection" />
</svg>